<svg xmlns="http://www.w3.org/2000/svg" xmlns:xlink="http://www.w3.org/1999/xlink" xmlns:fi="http://pattern.flaticon.com/" x="0" y="0" width="1000" height="500" viewBox="0 0 700 350"><rect x="0px" y="0px" width="100%" height="100%" opacity="0" fill="#fbf0ff"/><defs><g transform="matrix(0.054223560420540266 0.08722920403533171 -0.08722920403533171 0.054223560420540266 182.46071155727333 42.086174918034416)" id="L1_45"><path d="m472 32.5h-24v-24c0-4.417969-3.582031-8-8-8h-168c-12.640625.035156-24.511719 6.0625-32 16.246094-7.488281-10.183594-19.359375-16.210938-32-16.246094h-168c-4.417969 0-8 3.582031-8 8v24h-24c-4.417969 0-8 3.582031-8 8v320c0 4.417969 3.582031 8 8 8h312v40c0 3.234375 1.949219 6.152344 4.9375 7.390625s6.429688.550781 8.71875-1.734375l18.34375-18.34375 18.34375 18.34375c1.5 1.5 3.535156 2.34375 5.65625 2.34375 1.050781.003906 2.09375-.203125 3.0625-.609375 2.988281-1.238281 4.9375-4.15625 4.9375-7.390625v-40h88c4.417969 0 8-3.582031 8-8v-320c0-4.417969-3.582031-8-8-8zm-200-16h160v272h-160c-8.683594.03125-17.117188 2.914062-24 8.207031v-256.207031c0-13.253906 10.746094-24 24-24zm-224 0h160c13.253906 0 24 10.746094 24 24v256.207031c-6.882812-5.292969-15.316406-8.175781-24-8.207031h-160zm-32 32h16v304h-16zm32 256h160c10.132812.042969 19.148438 6.445312 22.527344 16h-150.527344v16h152v16h-184zm200 48v-16h72v16zm120 36.6875-10.34375-10.34375c-3.125-3.121094-8.1875-3.121094-11.3125 0l-10.34375 10.34375v-52.6875h32zm16-52.6875h16v-16h-150.527344c3.378906-9.554688 12.394532-15.957031 22.527344-16h160v48h-48zm80 16h-16v-304h16zm0 0"/><path d="m80 72.5h112v16h-112zm0 0"/><path d="m80 120.5h112v16h-112zm0 0"/><path d="m80 168.5h112v16h-112zm0 0"/><path d="m80 216.5h112v16h-112zm0 0"/><path d="m288 72.5h112v16h-112zm0 0"/><path d="m288 120.5h112v16h-112zm0 0"/><path d="m288 168.5h112v16h-112zm0 0"/><path d="m288 216.5h112v16h-112zm0 0"/></g><path d="m502.343 177.3-240-104c-4.059-1.759-8.665-1.759-12.724 0l-240 104c-12.824 5.557-12.827 23.804 0 29.361l86.362 37.423v99.896c0 53.832 70.28 96 160 96s160-42.168 160-96v-99.896l16-6.933v170.829c0 8.836 7.164 16 16 16s16-7.164 16-16v-184.695l38.362-16.623c12.824-5.557 12.826-23.804 0-29.362zm-246.362-71.882 199.759 86.563-15.843 6.865-181.932-22.742c-8.769-1.089-16.765 5.124-17.861 13.892s5.124 16.765 13.892 17.861l128.142 16.018-126.157 54.668c-112.857-48.905-88.82-38.489-199.759-86.563zm128 238.563c0 15.075-12.373 30.596-33.947 42.581-51.381 28.545-136.575 28.629-188.106 0-21.574-11.985-33.947-27.506-33.947-42.581v-86.029l121.638 52.71c4.052 1.756 8.657 1.762 12.724 0l121.638-52.71z" transform="matrix(0.0935080668408883 0.07013104576810028 -0.07013104576810028 0.0935080668408883 230.98906644844868 264.140008869221)" id="L1_48"/><path d="M404.72,82.944c-0.027,0-0.054,0-0.08,0h0h-27.12v-9.28c0.146-3.673-2.23-6.974-5.76-8    c-18.828-4.934-38.216-7.408-57.68-7.36c-32,0-75.6,7.2-107.84,40c-32-33.12-75.92-40-107.84-40    c-19.464-0.048-38.852,2.426-57.68,7.36c-3.53,1.026-5.906,4.327-5.76,8v9.2H8c-4.418,0-8,3.582-8,8v255.52c0,4.418,3.582,8,8,8    c1.374-0.004,2.724-0.362,3.92-1.04c0.8-0.4,80.8-44.16,192.48-16h1.2h0.72c0.638,0.077,1.282,0.077,1.92,0    c112-28.4,192,15.28,192.48,16c2.475,1.429,5.525,1.429,8,0c2.46-1.42,3.983-4.039,4-6.88V90.944    C412.72,86.526,409.139,82.944,404.72,82.944z M16,333.664V98.944h19.12v200.64c-0.05,4.418,3.491,8.04,7.909,8.09    c0.432,0.005,0.864-0.025,1.291-0.09c16.55-2.527,33.259-3.864,50-4c23.19-0.402,46.283,3.086,68.32,10.32    C112.875,307.886,62.397,314.688,16,333.664z M94.32,287.664c-14.551,0.033-29.085,0.968-43.52,2.8V79.984    c15.576-3.47,31.482-5.241,47.44-5.28c29.92,0,71.2,6.88,99.84,39.2l0.24,199.28C181.68,302.304,149.2,287.664,94.32,287.664z     M214.32,113.904c28.64-32,69.92-39.2,99.84-39.2c15.957,0.047,31.863,1.817,47.44,5.28v210.48    c-14.354-1.849-28.808-2.811-43.28-2.88c-54.56,0-87.12,14.64-104,25.52V113.904z M396.64,333.664    c-46.496-19.028-97.09-25.831-146.96-19.76c22.141-7.26,45.344-10.749,68.64-10.32c16.846,0.094,33.663,1.404,50.32,3.92    c4.368,0.663,8.447-2.341,9.11-6.709c0.065-0.427,0.095-0.859,0.09-1.291V98.944h19.12L396.64,333.664z" transform="matrix(0.1453770101070404 0 0 0.1453770101070404 225 85.00000482697124)" id="L1_49"/><path d="M496.063,62.299l-46.396-46.4c-21.199-21.199-55.689-21.198-76.888,0C352.82,35.86,47.964,340.739,27.591,361.113    c-2.17,2.17-3.624,5.054-4.142,7.875L0.251,494.268c-0.899,4.857,0.649,9.846,4.142,13.339c3.497,3.497,8.487,5.042,13.338,4.143    L143,488.549c2.895-0.54,5.741-2.008,7.875-4.143l345.188-345.214C517.311,117.944,517.314,83.55,496.063,62.299z M33.721,478.276    l14.033-75.784l61.746,61.75L33.721,478.276z M140.269,452.585L59.41,371.721L354.62,76.488l80.859,80.865L140.269,452.585z     M474.85,117.979l-18.159,18.161l-80.859-80.865l18.159-18.161c9.501-9.502,24.96-9.503,34.463,0l46.396,46.4    C484.375,93.039,484.375,108.453,474.85,117.979z" transform="matrix(0.0885608121752739 0 0 0.0885608121752739 324.32837295532227 187.32837295532227)" id="L1_50"/><g transform="matrix(0.11163999673428533 -0.025584166006517403 0.025584166006517403 0.11163999673428533 229.87054014917499 210.96966848306727)" id="L1_52"><path d="M484.172,248.641h-78.307c-4.145,0-7.504,3.359-7.504,7.504c0,4.145,3.359,7.504,7.504,7.504h78.307    c7.07,0,12.821,5.752,12.821,12.822v207.205c0,7.069-5.751,12.821-12.821,12.821H27.828c-7.07,0-12.821-5.752-12.821-12.821    V276.469c0-7.07,5.751-12.822,12.821-12.822h338.019c4.145,0,7.504-3.359,7.504-7.504c0-4.145-3.359-7.504-7.504-7.504h-76.749    v-17.913c0-8.698-7.077-15.775-15.775-15.775h-10.738v-12.683c0-11.763,9.57-21.333,21.334-21.333h13.36    c20.038,0,36.341-16.303,36.341-36.341v-20.363c0-20.038-16.303-36.341-36.341-36.341h-12.44c-11.764,0-21.334-9.57-21.334-21.333    V8.003c0-4.145-3.359-7.504-7.504-7.504c-4.145,0-7.504,3.359-7.504,7.504v58.555c0,20.038,16.303,36.341,36.341,36.341h12.44    c11.763,0,21.333,9.57,21.333,21.333v20.363c0,11.763-9.57,21.333-21.333,21.333h-13.36c-20.038,0-36.341,16.303-36.341,36.341    v12.683h-9.237c-8.698,0-15.775,7.077-15.775,15.775v17.913H27.828C12.483,248.641,0,261.124,0,276.469v207.205    c0,15.344,12.483,27.828,27.828,27.828h456.345c15.344,0,27.828-12.483,27.828-27.828V276.469    C512,261.124,499.517,248.641,484.172,248.641z M238.34,229.96h34.982c0.423,0,0.768,0.345,0.768,0.768v17.913h-36.517v-17.913    h-0.001C237.572,230.305,237.917,229.96,238.34,229.96z"/><path d="M77.781,283.982h-33.13c-6.695,0-12.141,5.446-12.141,12.141v30.488c0.001,6.695,5.447,12.141,12.141,12.141h33.13    c6.695,0,12.141-5.446,12.141-12.141v-30.488C89.922,289.428,84.476,283.982,77.781,283.982z M74.915,323.745H47.518V298.99    h27.397V323.745z"/><path d="M142.709,283.983h-33.13c-6.695,0-12.141,5.446-12.141,12.141v30.488c0,6.695,5.446,12.141,12.141,12.141h33.13    c6.695,0,12.142-5.446,12.142-12.141v-30.488C154.85,289.429,149.403,283.983,142.709,283.983z M139.843,323.745h-27.398V298.99    h27.398V323.745z"/><path d="M207.637,283.983h-33.13c-6.695,0-12.141,5.446-12.141,12.141v30.488c0,6.695,5.446,12.141,12.141,12.141h33.13    c6.695,0,12.141-5.446,12.141-12.141v-30.488C219.778,289.429,214.332,283.983,207.637,283.983z M204.77,323.745h-27.397V298.99    h27.397V323.745z"/><path d="M272.565,283.983h-33.13c-6.695,0-12.141,5.446-12.141,12.141v30.488c0,6.695,5.446,12.141,12.141,12.141h33.13    c6.695,0,12.142-5.446,12.142-12.141v-30.488C284.706,289.429,279.259,283.983,272.565,283.983z M269.699,323.745h-27.398V298.99    h27.398V323.745z"/><path d="M337.493,283.983h-33.13c-6.695,0-12.141,5.446-12.141,12.141v30.488c0,6.695,5.446,12.141,12.141,12.141h33.13    c6.695,0,12.141-5.446,12.141-12.141v-30.488C349.634,289.429,344.188,283.983,337.493,283.983z M334.626,323.745h-27.397V298.99    h27.397V323.745z"/><path d="M402.42,283.983h-33.13c-6.695,0-12.141,5.446-12.141,12.141v30.488c0,6.695,5.446,12.141,12.141,12.141h33.13    c6.695,0,12.142-5.446,12.142-12.141v-30.488C414.562,289.429,409.115,283.983,402.42,283.983z M399.555,323.745h-27.398V298.99    h27.398V323.745z"/><path d="M467.349,283.982h-33.13c-6.695,0-12.141,5.446-12.141,12.141v30.488c0,6.695,5.446,12.141,12.141,12.141h33.13    c6.695,0,12.141-5.446,12.141-12.141v-30.488C479.49,289.428,474.044,283.982,467.349,283.982z M464.482,323.745h-27.397V298.99    h27.397V323.745z"/><path d="M106.16,356.023H44.651c-6.695,0-12.141,5.446-12.141,12.141v30.488c0,6.695,5.446,12.141,12.141,12.141h61.509    c6.695-0.001,12.141-5.447,12.141-12.141v-30.488C118.301,361.469,112.855,356.023,106.16,356.023z M103.294,395.785    L103.294,395.785H47.518V371.03h55.776V395.785z"/><path d="M467.349,356.022H405.84c-6.695,0.001-12.141,5.447-12.141,12.141v30.488c0,6.695,5.446,12.141,12.141,12.141h61.509    c6.695,0,12.141-5.446,12.141-12.141v-30.488C479.49,361.468,474.044,356.022,467.349,356.022z M464.483,395.785h-55.776V371.03    h55.776V395.785z"/><path d="M172.328,356.022h-33.13c-6.695,0.001-12.141,5.447-12.141,12.141v30.488c0,6.695,5.446,12.141,12.141,12.141h33.13    c6.695,0,12.142-5.446,12.142-12.141v-30.488C184.47,361.468,179.023,356.022,172.328,356.022z M169.462,395.785h-27.398V371.03    h27.398V395.785z"/><path d="M239.153,356.022h-33.13c-6.696,0.001-12.141,5.447-12.141,12.141v30.488c0,6.695,5.446,12.141,12.141,12.141h33.13    c6.695,0,12.142-5.446,12.142-12.141v-30.488C251.295,361.468,245.848,356.022,239.153,356.022z M236.287,395.785h-27.398V371.03    h27.398V395.785z"/><path d="M305.977,356.022h-33.13c-6.695,0.001-12.141,5.447-12.141,12.141v30.488c0,6.695,5.446,12.141,12.141,12.141h33.13    c6.695,0,12.142-5.446,12.142-12.141v-30.488C318.119,361.468,312.672,356.022,305.977,356.022z M303.112,395.785h-27.398V371.03    h27.398V395.785z"/><path d="M372.802,356.022h-33.13c-6.695,0.001-12.141,5.447-12.141,12.141v30.488c0,6.695,5.446,12.141,12.141,12.141h33.13    c6.695,0,12.142-5.446,12.142-12.141v-30.488C384.944,361.468,379.497,356.022,372.802,356.022z M369.936,395.785h-27.398V371.03    h27.398V395.785z"/><path d="M396.566,428.062H175.772c-4.145,0-7.504,3.359-7.504,7.504c0,4.145,3.359,7.504,7.504,7.504h217.927v24.755H118.301    V443.07h17.574c4.145,0,7.504-3.359,7.504-7.504c0-4.145-3.359-7.504-7.504-7.504h-20.44c-6.695,0-12.141,5.446-12.141,12.141    v30.488c-0.001,6.695,5.445,12.141,12.14,12.141h281.132c6.695,0,12.141-5.446,12.141-12.141v-30.488    C408.707,433.508,403.261,428.062,396.566,428.062z"/><path d="M77.781,428.063h-33.13c-6.695,0-12.141,5.446-12.141,12.141v30.488c0,6.695,5.446,12.141,12.141,12.141h33.13    c6.695,0,12.141-5.446,12.141-12.141v-30.488C89.922,433.509,84.476,428.063,77.781,428.063z M74.915,467.825H47.518V443.07    h27.397V467.825z"/><path d="M467.349,428.063h-33.13c-6.695,0-12.141,5.446-12.141,12.141v30.488c0,6.695,5.446,12.141,12.141,12.141h33.13    c6.695,0,12.141-5.446,12.141-12.141v-30.488C479.489,433.509,474.043,428.063,467.349,428.063z M464.482,467.825h-27.397V443.07    h27.397V467.825z"/></g><g transform="matrix(0.1427263618481892 0.05243009460963606 -0.05243009460963606 0.1427263618481892 293.0968215241177 236.5429558363186)" id="L1_58"><path d="m465.966 491.997h-15.539c-19.262-22.851-19.262-57.149 0-80h15.539c5.522 0 10-4.477 10-10s-4.478-10-10-10h-55.539c-19.262-22.851-19.262-57.149 0-80h15.539c5.522 0 10-4.477 10-10s-4.478-10-10-10h-84.203c4.438-3.835 8.627-8.187 12.511-13.042 16.522-20.654 25.622-47.984 25.622-76.958s-9.1-56.304-25.622-76.958c-17.047-21.308-39.909-33.042-64.378-33.042-10.425 0-20.716 2.195-30.416 6.429-.701-6.49-2.301-12.711-4.659-18.55 1.3-.063 2.64-.151 4.024-.28 15.094-1.412 27.468-6.553 35.783-14.868 8.314-8.314 13.455-20.688 14.867-35.782 1.012-10.806-.216-19.458-.269-19.82-.637-4.38-4.078-7.821-8.458-8.458-.363-.053-9.014-1.281-19.821-.27-15.095 1.412-27.468 6.553-35.783 14.868-7.942 7.943-12.98 19.595-14.647 33.778-11.464-8.2-25.483-13.047-40.622-13.047-5.523 0-10 4.477-10 10s4.477 10 10 10c24.841 0 45.5 18.211 49.349 41.983-9.387-3.936-19.305-5.983-29.349-5.983-24.468 0-47.331 11.735-64.377 33.042-16.523 20.654-25.623 47.984-25.623 76.958s9.1 56.304 25.623 76.958c3.884 4.855 8.073 9.207 12.511 13.042h-92.063c-2.713 0-5.309 1.102-7.193 3.053-30.323 31.4-30.323 82.493 0 113.894 1.884 1.951 4.48 3.053 7.193 3.053h20.311c-16.987 30.755-12.833 70.717 12.496 96.947 1.884 1.951 4.48 3.053 7.193 3.053h360c5.522 0 10-4.477 10-10s-4.477-10-10-10zm-206.657-462.589c7.645-7.645 21.151-9.43 30.591-9.43h.017c.002 9.441-1.78 22.959-9.43 30.608-7.644 7.644-21.146 9.429-30.576 9.431-.031-8.73 1.344-22.555 9.398-30.609zm-119.411 172.589c0-49.626 31.402-90 70-90 11.944 0 23.75 3.971 34.141 11.485 3.497 2.528 8.222 2.528 11.719 0 10.391-7.514 22.196-11.485 34.14-11.485 38.598 0 70 40.374 70 90s-31.402 90-70 90c-11.944 0-23.75-3.971-34.14-11.485-1.749-1.264-3.804-1.896-5.859-1.896s-4.111.632-5.859 1.896c-10.391 7.514-22.196 11.485-34.141 11.485-38.6 0-70.001-40.374-70.001-90zm-69.493 110h315.872c-13.638 24.692-13.638 55.308 0 80h-180.31v-30h120c5.522 0 10-4.477 10-10s-4.478-10-10-10h-220c-5.523 0-10 4.477-10 10s4.477 10 10 10h20v30h-55.562c-19.252-22.847-19.252-57.152 0-80zm75.561 50h40v45.858l-12.929-12.929c-3.905-3.905-10.237-3.905-14.143 0l-12.929 12.929v-45.858zm-35.539 50h15.54v20c0 4.044 2.437 7.691 6.173 9.239 3.737 1.549 8.038.691 10.898-2.167l22.929-22.929 22.929 22.929c1.914 1.913 4.471 2.929 7.074 2.929 1.288 0 2.587-.25 3.824-.762 3.737-1.548 6.173-5.194 6.173-9.239v-20h220.31c-13.638 24.692-13.638 55.308 0 80h-315.872c-19.254-22.85-19.237-57.152.022-80z" fill="#000000"/><path d="m365.966 441.997h-140c-5.523 0-10 4.477-10 10s4.477 10 10 10h140c5.522 0 10-4.477 10-10s-4.477-10-10-10z" fill="#000000"/><path d="m287.116 153.493c15.622 4.523 27.708 18.541 31.541 36.583.998 4.702 5.149 7.924 9.771 7.924.688 0 1.388-.071 2.088-.22 5.402-1.148 8.852-6.458 7.703-11.86-5.368-25.272-22.819-45.058-45.541-51.637-5.304-1.536-10.85 1.52-12.387 6.824-1.536 5.304 1.52 10.85 6.825 12.386z" fill="#000000"/></g><g transform="matrix(-0.12131205201148987 1.485644161938683e-17 -1.485644161938683e-17 -0.12131205201148987 144.6487665569548 128.0558856831368)" id="L1_59"><path d="m385.842 16.1c-10.382-10.382-24.185-16.1-38.867-16.1s-28.484 5.718-38.866 16.099l-274.042 274.045c-6.209 6.209-10.456 14.032-12.28 22.621l-14.98 70.514c-.704 3.312.316 6.755 2.711 9.149 1.895 1.895 4.447 2.929 7.071 2.929.691 0 1.388-.072 2.078-.218l70.514-14.98c8.589-1.825 16.411-6.072 22.621-12.281l274.04-274.046c21.431-21.431 21.431-56.302 0-77.732zm-51.139 100.588-9.113 9.113-49.449-49.449 9.113-9.114zm-32.369 32.369-49.449-49.449 9.113-9.114 49.449 49.449zm-63.591-35.307 17.654 17.654-172.931 172.932c-6.11.04-11.903-2.299-16.292-6.688-2.141-2.141-3.811-4.642-4.947-7.381zm-205.237 240.093 14.596 14.596-18.533 3.938zm51.517 6.752-13.592 2.888-32.969-32.969 2.888-13.593c.949-4.466 3.071-8.561 6.158-11.904 1.593 2.419 3.439 4.688 5.524 6.773 6.861 6.861 15.571 11.075 24.894 12.228 1.154 9.323 5.367 18.033 12.228 24.894 2.085 2.085 4.353 3.931 6.773 5.524-3.342 3.088-7.438 5.21-11.904 6.159zm26.654-20.878c-2.739-1.136-5.24-2.806-7.38-4.946-4.388-4.389-6.744-10.199-6.688-16.293l6.37-6.37 166.561-166.562 17.653 17.653zm260.022-260.026-22.854 22.855-49.448-49.45 22.855-22.855c6.604-6.604 15.384-10.241 24.723-10.241 9.34 0 18.12 3.637 24.724 10.241 13.634 13.634 13.634 35.816 0 49.45z"/><g><path d="m373.42 292.12c-9.795.003-13.697-12.888-5.55-18.32 5.628-3.998 14.203-.439 15.36 6.36 1.347 5.977-3.696 12.1-9.81 11.96z"/><path d="m502.483 153.059-70.7-70.701c-1.875-1.875-4.419-2.929-7.071-2.929s-5.196 1.054-7.071 2.929l-341.867 341.871c-3.905 3.905-3.905 10.237 0 14.142l70.7 70.701c1.876 1.875 4.419 2.929 7.071 2.929s5.196-1.054 7.071-2.929l180.557-180.56c3.905-3.905 3.905-10.237 0-14.142s-10.237-3.905-14.142 0l-173.486 173.488-56.557-56.558 15.452-15.452 21.495 21.496c1.953 1.953 4.512 2.929 7.071 2.929s5.119-.977 7.071-2.929c3.905-3.905 3.906-10.237.001-14.142l-21.496-21.497 42.394-42.394 21.496 21.496c1.953 1.953 4.512 2.929 7.071 2.929s5.119-.977 7.071-2.929c3.905-3.905 3.906-10.237 0-14.142l-21.496-21.497 42.393-42.394 21.496 21.496c1.953 1.953 4.512 2.929 7.071 2.929s5.119-.976 7.071-2.929c3.905-3.905 3.905-10.237 0-14.143l-21.496-21.496 42.393-42.393 21.496 21.496c1.953 1.953 4.512 2.929 7.071 2.929s5.119-.976 7.071-2.929c3.905-3.905 3.905-10.237 0-14.143l-21.496-21.496 42.393-42.394 21.496 21.496c1.953 1.953 4.512 2.929 7.071 2.929s5.119-.977 7.071-2.929c3.905-3.905 3.906-10.237 0-14.142l-21.496-21.497 42.394-42.394 21.496 21.496c1.953 1.953 4.512 2.929 7.071 2.929s5.119-.977 7.071-2.929c3.905-3.905 3.906-10.237 0-14.142l-21.496-21.497 15.452-15.452 56.558 56.559-80.499 80.5c-3.905 3.905-3.905 10.237 0 14.142s10.237 3.905 14.142-.001l87.569-87.57c3.907-3.904 3.908-10.236.002-14.14z"/></g></g><g transform="matrix(0.11600815947341438 -0.09452516190187864 0.09452516190187864 0.11600815947341438 96.10402740937637 290.53976540185124)" id="L1_60"><path d="M277.332,0c-98.816,0-179.2,80.393-179.2,179.2s80.384,179.2,179.2,179.2s179.2-80.393,179.2-179.2S376.148,0,277.332,0z     M277.332,341.333c-89.404,0-162.133-72.73-162.133-162.133s72.73-162.133,162.133-162.133S439.466,89.796,439.466,179.2    S366.736,341.333,277.332,341.333z"/><path d="M308.88,181.222c-0.785-5.896-4.378-11.145-9.626-14.046c-5.231-2.901-11.315-3.149-16.674-0.7v0.009    c-13.815,6.298-30.319,0.93-37.572-12.262c-10.769-19.61-28.911-24.311-29.21-24.371c-23.305-7.236-33.69-12.339-38.255-15.241    c1.126-0.375,2.543-0.794,4.309-1.203c5.982-1.417,12.433-1.98,19.183-1.613c34.185,1.579,51.456-22.665,55.868-35.814    c6.221-18.56-10.556-51.712-18.057-65.101l-3.285-5.871l-6.477,1.835c-61.372,17.314-109.372,66.159-125.278,127.479l-1.604,6.161    l5.444,3.285c15.744,9.523,31.616,8.909,34.867,8.653c8.482,0.068,15.095,2.594,20.215,7.74    c11.494,11.537,12.646,33.314,12.612,42.138c-0.034,8.986,0.785,17.041,2.517,24.636c10.351,45.295,40.969,49.152,51.089,49.152    c1.015,0,1.826-0.034,2.389-0.085c14.404-0.119,27.332-8.107,33.801-20.932c3.661-7.253,9.353-13.525,16.444-18.133    C309.375,218.889,310.612,194.278,308.88,181.222z M272.289,222.626c-9.617,6.246-17.357,14.805-22.374,24.755    c-3.601,7.125-10.829,11.554-18.876,11.554l-1.203,0.085c-1.058,0.179-26.385,3.285-35.328-35.891    c-1.442-6.306-2.125-13.099-2.091-20.77c0.051-13.602-2.159-38.75-17.587-54.246c-8.439-8.465-19.422-12.757-32.657-12.757    l-0.888,0.051c-0.111,0.017-9.011,0.802-19.115-3.362c15.36-50.219,54.775-90.3,105.02-106.795    c9.088,17.604,16.162,37.427,13.517,45.295c-0.077,0.256-8.977,25.847-38.81,24.201c-8.38-0.393-16.427,0.265-23.97,2.048    c-4.958,1.169-20.062,4.727-20.471,16.418c-0.35,10.01,8.439,19.012,53.675,33.05c0.478,0.128,11.861,3.319,18.918,16.179    c11.52,20.992,37.709,29.602,59.622,19.558c0.41-0.171,0.862-0.145,1.323,0.111c0.265,0.137,0.862,0.555,0.973,1.357    C294.109,199.578,287.487,212.753,272.289,222.626z"/><path d="M450.38,132.062l-1.946-7.279l-7.458,1.016c-36.958,5.052-54.323-1.314-60.075-4.301    c-8.943-4.625-18.756-5.069-26.889-1.161c-11.136,5.299-23.603,18.901-19.721,54.025c0.179,1.067,4.642,26.3,32.435,40.32    c8.61,4.344,13.158,13.807,11.059,23.014c-6.332,27.793-0.154,50.509,17.886,65.698l6.17,5.197l5.538-5.862    c31.693-33.579,49.152-77.559,49.152-123.853C456.532,163.081,454.459,147.328,450.38,132.062z M400.895,284.382    c-8.354-10.641-10.53-25.02-6.451-42.889c3.84-16.879-4.386-34.167-20.019-42.052c-19.797-9.993-23.151-27.213-23.211-27.409    c-1.51-13.636-0.964-31.002,10.163-36.301c1.357-0.648,2.893-0.973,4.514-0.973c2.287,0,4.753,0.64,7.177,1.894    c8.346,4.318,27.238,10.658,62.566,6.972c2.543,11.588,3.831,23.398,3.831,35.251    C439.466,217.805,425.829,254.942,400.895,284.382z"/><path d="M391.85,41.378c-12.834-10.675-27.11-19.507-42.453-26.249l-4.838-2.133l-7.748,6.468    c-9.02,7.057-36.489,28.518-23.851,52.898l1.135,1.69c4.855,5.572,15.232,12.868,28.134,12.868c6.212,0,13.005-1.698,20.036-6.093    c4.48-2.79,8.474-6.63,12.561-12.075c2.116-2.816,6.127-7.168,12.655-11.614l13.833-7.885L391.85,41.378z M361.189,58.496    c-2.79,3.721-5.316,6.212-7.945,7.851c-12.902,8.038-22.886-0.154-25.626-2.842c-1.621-3.686-3.183-12.638,19.661-30.575    c8.644,4.139,16.896,9.028,24.644,14.601C366.727,51.797,363.306,55.689,361.189,58.496z"/><path d="M324.436,341.555c-3.593-7.509-6.187-16.196-7.706-25.813c-3.046-19.268-19.627-33.254-39.407-33.254    c-30.507,0-55.347,24.687-55.612,55.125l-1.297,11.674l6.903,1.997c16.307,4.727,33.126,7.117,50.014,7.117    c13.833,0,27.75-1.63,41.37-4.855l10.308-2.441L324.436,341.555z M238.804,336.683c0.751-20.599,17.741-37.129,38.519-37.129    c11.153,0,20.847,8.107,22.545,18.859c1.152,7.279,2.85,14.148,5.077,20.54C282.887,342.767,260.411,341.965,238.804,336.683z"/><path d="M445.925,327.219c-3.089-3.567-8.482-3.959-12.041-0.87c-37.623,32.538-76.527,66.185-156.553,66.185    c-117.632,0-213.333-95.701-213.333-213.333c0-54.101,16.99-102.332,49.126-139.486c3.081-3.567,2.688-8.96-0.87-12.032    c-3.558-3.089-8.96-2.688-12.041,0.87C65.356,68.847,46.932,120.943,46.932,179.2c0,127.044,103.356,230.4,230.4,230.4    c86.383,0,127.727-35.755,167.723-70.349C448.613,336.179,449.014,330.786,445.925,327.219z"/><path d="M129.765,45.167L95.632,11.034c-3.337-3.336-8.73-3.336-12.066,0c-3.336,3.337-3.336,8.73,0,12.066l34.133,34.133    c1.664,1.664,3.849,2.5,6.033,2.5c2.185,0,4.369-0.836,6.033-2.5C133.102,53.897,133.102,48.503,129.765,45.167z"/><path d="M462.565,343.834L428.432,309.7c-3.337-3.336-8.73-3.337-12.066,0c-3.337,3.337-3.337,8.73,0,12.066l34.133,34.133    c1.664,1.664,3.849,2.5,6.033,2.5c2.185,0,4.369-0.836,6.033-2.5C465.902,352.563,465.902,347.17,462.565,343.834z"/><path d="M354.132,460.8h-153.6c-4.71,0-8.533,3.814-8.533,8.533v34.133c0,4.719,3.823,8.533,8.533,8.533h153.6    c4.71,0,8.533-3.814,8.533-8.533v-34.133C362.666,464.614,358.843,460.8,354.132,460.8z M345.599,494.933H209.066v-17.067h136.533    V494.933z"/><path d="M345.599,460.8c-32.939,0-59.733-26.803-59.733-59.733c0-4.719-3.823-8.533-8.533-8.533c-4.71,0-8.533,3.814-8.533,8.533    c0,32.93-26.795,59.733-59.733,59.733c-4.71,0-8.533,3.814-8.533,8.533s3.823,8.533,8.533,8.533h136.533    c4.71,0,8.533-3.814,8.533-8.533S350.309,460.8,345.599,460.8z M257.287,460.8c8.269-6.682,15.121-15.053,20.045-24.568    c4.924,9.515,11.776,17.886,20.045,24.568H257.287z"/></g><g transform="matrix(0.10808499902486801 0 0 0.10808499902486801 275.32590695222154 153.32574801146984)" id="L1_62"><path d="m485.029 242.42c-3.189-32.167-14.205-67.699-31.018-100.052-20.969-40.35-49.981-74.56-83.899-98.931-40.113-28.823-85.697-43.437-135.486-43.437-31.891 0-62.512 6.995-91.013 20.791-4.971 2.406-7.05 8.387-4.644 13.358 2.407 4.97 8.386 7.049 13.358 4.644 25.762-12.47 53.452-18.793 82.299-18.793 120.269 0 181.077 92.025 201.638 131.591 31.274 60.179 39.054 128.063 18.096 157.905-7.629 10.866-22.746 9.676-47.571-3.743-.097-.052-.195-.104-.294-.153-15.242-7.596-30.854-5.771-40.744 4.759-10.825 11.526-11.905 29.961-2.688 45.875 5.46 9.426 11.792 29.483 13.63 53.043 1.952 25.025-1.714 46.73-10.323 61.117-9.078 15.171-23.325 22.225-43.527 21.564-62.74-2.05-132.928-36.129-187.753-91.162-56.614-56.828-89.084-127.11-89.084-192.828 0-42.498 13.881-82.588 40.143-115.937 3.417-4.339 2.669-10.626-1.669-14.043-4.339-3.417-10.626-2.669-14.043 1.669-29.066 36.91-44.43 81.279-44.43 128.311 0 70.968 34.595 146.396 94.915 206.943 28.105 28.211 60.867 51.951 94.743 68.653 35.892 17.696 71.732 27.245 106.525 28.382 1.047.034 2.082.051 3.11.051 25.848-.001 45.941-10.792 58.233-31.335 13.739-22.96 14.707-52.339 13.1-72.942-1.831-23.473-8.214-47.618-16.263-61.512-5.465-9.435-3.852-18.1-.041-22.158 3.749-3.991 9.82-4.21 17.106-.619 8.797 4.748 20.425 10.437 32.64 12.572 22.165 3.874 34.34-6.026 40.652-15.013 12.484-17.775 17.563-45.678 14.302-78.57z"/><path d="m215.039 42.606c-24.813 0-45 20.187-45 45s20.187 45 45 45 45-20.187 45-45-20.187-45-45-45zm0 70c-13.785 0-25-11.215-25-25s11.215-25 25-25 25 11.215 25 25-11.214 25-25 25z"/><path d="m122.732 207.098c24.813 0 45-20.187 45-45s-20.187-45-45-45-45 20.187-45 45 20.187 45 45 45zm0-70c13.785 0 25 11.215 25 25s-11.215 25-25 25-25-11.215-25-25 11.215-25 25-25z"/><path d="m129.481 231.848c-24.813 0-45 20.187-45 45s20.187 45 45 45 45-20.187 45-45-20.187-45-45-45zm0 70c-13.785 0-25-11.215-25-25s11.215-25 25-25 25 11.215 25 25-11.214 25-25 25z"/><path d="m154.232 371.348c0 24.813 20.187 45 45 45s45-20.187 45-45-20.187-45-45-45-45 20.187-45 45zm69.999 0c0 13.785-11.215 25-25 25s-25-11.215-25-25 11.215-25 25-25c13.786 0 25 11.215 25 25z"/><path d="m300.482 468.098c24.813 0 45-20.187 45-45s-20.187-45-45-45-45 20.187-45 45 20.187 45 45 45zm0-70c13.785 0 25 11.215 25 25s-11.215 25-25 25-25-11.215-25-25 11.215-25 25-25z"/><path d="m395.601 274.371c3.34 0 6.704-.428 10.034-1.32 11.98-3.21 21.637-11.749 27.19-24.043 5.244-11.609 6.175-25.302 2.624-38.557-3.551-13.254-11.205-24.647-21.551-32.079-10.956-7.871-23.589-10.438-35.568-7.227-23.968 6.422-37.342 34.503-29.814 62.6 6.481 24.192 26.378 40.627 47.085 40.626zm-12.096-83.908c1.615-.433 3.27-.646 4.941-.646 4.624 0 9.38 1.635 13.782 4.797 6.604 4.745 11.542 12.207 13.901 21.013 2.359 8.805 1.815 17.736-1.532 25.147-3.038 6.726-8.06 11.328-14.14 12.957-13.312 3.565-27.95-7.721-32.625-25.164-4.672-17.442 2.358-34.536 15.673-38.104z"/><path d="m109.947 63.86c5.523 0 10-4.477 10-10s-4.477-10-10-10h-.007c-5.523 0-9.996 4.477-9.996 10s4.48 10 10.003 10z"/></g><g transform="matrix(0.12818897654900152 0.07364047329983153 -0.07364047329983153 0.12818897654900152 20.207710865061955 202.72797027283508)" id="L1_64"><path d="M369.919,125.651c0,0-2.58-92.137-2.697-93.246c-0.18-1.709-0.625-3.398-1.338-5.016c-1.817-4.12-5.13-7.286-9.328-8.915   l-27.3-10.59c-4.2-1.629-8.781-1.525-12.9,0.291c-4.12,1.817-7.286,5.13-8.915,9.329L288.707,65.79   c-2.858-0.687-5.752-1.277-8.679-1.771V45.81c0-25.26-20.55-45.81-45.81-45.81s-45.811,20.55-45.811,45.81v18.21   c-2.935,0.495-5.837,1.087-8.702,1.776L160.97,17.504c-1.629-4.199-4.795-7.512-8.915-9.329c-4.119-1.817-8.7-1.921-12.9-0.291   l-27.3,10.59c-4.198,1.629-7.511,4.794-9.328,8.915c-0.688,1.56-1.126,3.186-1.319,4.833c-0.136,1.161-2.712,93.463-2.712,93.463   c-11.605,19.435-18.286,42.135-18.286,66.369v247.967c0,15.667,12.746,28.414,28.414,28.414h251.187   c15.668,0,28.414-12.747,28.414-28.414V192.055C388.225,167.806,381.537,145.093,369.919,125.651z M354.285,104.612   c-2.985-3.271-6.138-6.385-9.439-9.337l8.508-21.933L354.285,104.612z M321.425,22.93c0.371-0.956,1.452-1.431,2.405-1.061   l27.3,10.59c0.594,0.23,0.888,0.662,1.029,0.982c0.142,0.321,0.262,0.829,0.031,1.423L332.538,85.53   c-9.042-6.314-18.917-11.513-29.431-15.384L321.425,22.93z M234.219,15c15.32,0,28.06,11.241,30.415,25.908   c-8.16-7.255-18.87-11.639-30.416-11.639c-11.32,0-22.007,4.085-30.399,11.548C206.212,26.195,218.93,15,234.219,15z    M262.228,62.266c-1.28-0.037-54.741-0.037-56.022,0c1.509-3.297,3.589-6.332,6.226-8.975c5.819-5.818,13.556-9.022,21.785-9.022   C246.462,44.269,257.312,51.587,262.228,62.266z M116.252,33.441c0.142-0.321,0.436-0.752,1.029-0.982l27.3-10.59   c0.955-0.371,2.035,0.106,2.405,1.061l18.321,47.225c-10.514,3.872-20.388,9.073-29.429,15.389l-19.658-50.68   C115.99,34.27,116.11,33.763,116.252,33.441z M115.058,73.344l8.513,21.947c-3.302,2.955-6.456,6.071-9.442,9.344L115.058,73.344z    M373.225,440.022c0,7.396-6.018,13.414-13.414,13.414H108.625c-7.396,0-13.414-6.018-13.414-13.414V192.055   c0-63.329,51.521-114.85,114.851-114.85h48.314c63.328,0,114.85,51.521,114.85,114.85V440.022z"/><path d="M132.452,253.728c-12.107,0-21.957,9.85-21.957,21.957v141.329c0,12.107,9.85,21.957,21.957,21.957h203.533   c12.107,0,21.957-9.85,21.957-21.957V275.685c0-12.107-9.85-21.957-21.957-21.957H132.452z M335.985,423.971H132.452   c-3.836,0-6.957-3.121-6.957-6.957v-94.267h188.801v17.055h15v-17.055h13.646v94.267   C342.942,420.85,339.821,423.971,335.985,423.971z M342.942,275.685v32.062H125.495v-32.062c0-3.836,3.121-6.957,6.957-6.957   h203.533C339.821,268.728,342.942,271.849,342.942,275.685z"/><path d="M281.824,108.039h-95.211v42.828h95.211V108.039z M266.824,135.867h-65.211v-12.828h65.211V135.867z"/></g><path d="M456.836,76.168l-64-64.054c-16.125-16.139-44.177-16.17-60.365,0.031L45.763,301.682    c-1.271,1.282-2.188,2.857-2.688,4.587L0.409,455.73c-1.063,3.722-0.021,7.736,2.719,10.478c2.031,2.033,4.75,3.128,7.542,3.128    c0.979,0,1.969-0.136,2.927-0.407l149.333-42.703c1.729-0.5,3.302-1.418,4.583-2.69l289.323-286.983    c8.063-8.069,12.5-18.787,12.5-30.192S464.899,84.237,456.836,76.168z M285.989,89.737l39.264,39.264L120.257,333.998    l-14.712-29.434c-1.813-3.615-5.5-5.896-9.542-5.896H78.921L285.989,89.737z M26.201,443.137L40.095,394.5l34.742,34.742    L26.201,443.137z M149.336,407.96l-51.035,14.579l-51.503-51.503l14.579-51.035h28.031l18.385,36.771    c1.031,2.063,2.708,3.74,4.771,4.771l36.771,18.385V407.96z M170.67,390.417v-17.082c0-4.042-2.281-7.729-5.896-9.542    l-29.434-14.712l204.996-204.996l39.264,39.264L170.67,390.417z M441.784,121.72l-47.033,46.613l-93.747-93.747l46.582-47.001    c8.063-8.063,22.104-8.063,30.167,0l64,64c4.031,4.031,6.25,9.385,6.25,15.083S445.784,117.72,441.784,121.72z" transform="matrix(0.10867802827120046 -0.019320538144005386 0.019320538144005386 0.10867802827120046 164.9628575003284 329.02418988986693)" id="L1_66"/><g transform="matrix(2.062394695069978 -0.6481812257824997 0.6481812257824997 2.062394695069978 291.4730889497703 13.029438368550263)" id="L1_68"><path d="m23.5 11.5c.28 0 .5.22.5.5s-.22.5-.5.5h-.5v-1z"/><path d="m12.5 11.5h10.5v1h-10.5z"/><path d="m21.5 24h-9.5c.28 0 .5-.22.5-.5v-.5h9c.83 0 1.5-.67 1.5-1.5v-9h.5c.28 0 .5-.22.5-.5v9.5c0 1.38-1.12 2.5-2.5 2.5z"/><path d="m24 2.5v9.5c0-.28-.22-.5-.5-.5h-.5v-9c0-.83-.67-1.5-1.5-1.5h-9v-.5c0-.28-.22-.5-.5-.5h9.5c1.38 0 2.5 1.12 2.5 2.5z"/><path d="m20 6c.28 0 .5.22.5.5s-.22.5-.5.5h-4c-.28 0-.5-.22-.5-.5s.22-.5.5-.5z"/><path d="m20 16c.28 0 .5.22.5.5s-.22.5-.5.5h-4c-.28 0-.5-.22-.5-.5s.22-.5.5-.5z"/><path d="m20 19c.28 0 .5.22.5.5s-.22.5-.5.5h-4c-.28 0-.5-.22-.5-.5s.22-.5.5-.5z"/><path d="m12.5 23v.5c0 .28-.22.5-.5.5s-.5-.22-.5-.5v-.5z"/><path d="m11.5 12.5h1v10.5h-1z"/><path d="m11.5 11.5h1v1h-1z"/><path d="m11.5 1h1v10.5h-1z"/><path d="m12.5.5v.5h-1v-.5c0-.28.22-.5.5-.5s.5.22.5.5z"/><path d="m1 11.5h10.5v1h-10.5z"/><path d="m8 6c.28 0 .5.22.5.5s-.22.5-.5.5h-1.5v-1z"/><path d="m7.85 19.15c.2.19.2.51 0 .7-.09.1-.22.15-.35.15s-.26-.05-.35-.15l-1.15-1.15.7-.7z"/><path d="m7.15 16.15c.19-.2.51-.2.7 0 .2.19.2.51 0 .7l-1.15 1.15-.7-.7z"/><path d="m5.505 17.505h.99v.99h-.99z" transform="matrix(0.707 -0.707 0.707 0.707 -10.971 9.515)"/><path d="m6.5 7v1.5c0 .28-.22.5-.5.5s-.5-.22-.5-.5v-1.5z"/><path d="m5.5 6h1v1h-1z"/><path d="m6.5 4.5v1.5h-1v-1.5c0-.28.22-.5.5-.5s.5.22.5.5z"/><path d="m6 17.3-.7.7-1.15-1.15c-.2-.19-.2-.51 0-.7.19-.2.51-.2.7 0z"/><path d="m5.5 6v1h-1.5c-.28 0-.5-.22-.5-.5s.22-.5.5-.5z"/><path d="m4.85 19.85c-.09.1-.22.15-.35.15s-.26-.05-.35-.15c-.2-.19-.2-.51 0-.7l1.15-1.15.7.7z"/><path d="m1 11.5v1h-.5c-.28 0-.5-.22-.5-.5s.22-.5.5-.5z"/><path d="m0 2.5c0-1.38 1.12-2.5 2.5-2.5h9.5c-.28 0-.5.22-.5.5v.5h-9c-.83 0-1.5.67-1.5 1.5v9h-.5c-.28 0-.5.22-.5.5z"/><path d="m1 21.5c0 .83.67 1.5 1.5 1.5h9v.5c0 .28.22.5.5.5h-9.5c-1.38 0-2.5-1.12-2.5-2.5v-9.5c0 .28.22.5.5.5h.5z"/></g><g transform="matrix(0.8958914591196708 0.49186196449273056 -0.49186196449273056 0.8958914591196708 232.41276004392387 -11.482270238506253)" id="L1_70"><path d="M49,62H15a7.008,7.008,0,0,1-7-7V9a7.008,7.008,0,0,1,7-7H49a7.008,7.008,0,0,1,7,7V55A7.008,7.008,0,0,1,49,62ZM15,4a5.006,5.006,0,0,0-5,5V55a5.006,5.006,0,0,0,5,5H49a5.006,5.006,0,0,0,5-5V9a5.006,5.006,0,0,0-5-5Z"/><path d="M35,58H29a3,3,0,0,1-3-3V51a3,3,0,0,1,3-3h6a3,3,0,0,1,3,3v4A3,3,0,0,1,35,58Zm-6-8a1,1,0,0,0-1,1v4a1,1,0,0,0,1,1h6a1,1,0,0,0,1-1V51a1,1,0,0,0-1-1Z"/><path d="M21,58H15a3,3,0,0,1-3-3V51a3,3,0,0,1,3-3h6a3,3,0,0,1,3,3v4A3,3,0,0,1,21,58Zm-6-8a1,1,0,0,0-1,1v4a1,1,0,0,0,1,1h6a1,1,0,0,0,1-1V51a1,1,0,0,0-1-1Z"/><path d="M49,58H43a3,3,0,0,1-3-3V39a3,3,0,0,1,3-3h6a3,3,0,0,1,3,3V55A3,3,0,0,1,49,58ZM43,38a1,1,0,0,0-1,1V55a1,1,0,0,0,1,1h6a1,1,0,0,0,1-1V39a1,1,0,0,0-1-1Z"/><path d="M35,46H29a3,3,0,0,1-3-3V39a3,3,0,0,1,3-3h6a3,3,0,0,1,3,3v4A3,3,0,0,1,35,46Zm-6-8a1,1,0,0,0-1,1v4a1,1,0,0,0,1,1h6a1,1,0,0,0,1-1V39a1,1,0,0,0-1-1Z"/><path d="M21,46H15a3,3,0,0,1-3-3V39a3,3,0,0,1,3-3h6a3,3,0,0,1,3,3v4A3,3,0,0,1,21,46Zm-6-8a1,1,0,0,0-1,1v4a1,1,0,0,0,1,1h6a1,1,0,0,0,1-1V39a1,1,0,0,0-1-1Z"/><path d="M35,34H29a3,3,0,0,1-3-3V27a3,3,0,0,1,3-3h6a3,3,0,0,1,3,3v4A3,3,0,0,1,35,34Zm-6-8a1,1,0,0,0-1,1v4a1,1,0,0,0,1,1h6a1,1,0,0,0,1-1V27a1,1,0,0,0-1-1Z"/><path d="M21,34H15a3,3,0,0,1-3-3V27a3,3,0,0,1,3-3h6a3,3,0,0,1,3,3v4A3,3,0,0,1,21,34Zm-6-8a1,1,0,0,0-1,1v4a1,1,0,0,0,1,1h6a1,1,0,0,0,1-1V27a1,1,0,0,0-1-1Z"/><path d="M49,34H43a3,3,0,0,1-3-3V27a3,3,0,0,1,3-3h6a3,3,0,0,1,3,3v4A3,3,0,0,1,49,34Zm-6-8a1,1,0,0,0-1,1v4a1,1,0,0,0,1,1h6a1,1,0,0,0,1-1V27a1,1,0,0,0-1-1Z"/><path d="M49,20H15a3,3,0,0,1-3-3V9a3,3,0,0,1,3-3H49a3,3,0,0,1,3,3v8A3,3,0,0,1,49,20ZM15,8a1,1,0,0,0-1,1v8a1,1,0,0,0,1,1H49a1,1,0,0,0,1-1V9a1,1,0,0,0-1-1Z"/><path d="M46,17a3,3,0,0,1-3-3V12a3,3,0,0,1,6,0v2A3,3,0,0,1,46,17Zm0-6a1,1,0,0,0-1,1v2a1,1,0,0,0,2,0V12A1,1,0,0,0,46,11Z"/></g><g transform="matrix(0.13896547280792443 -0.037222894271687415 0.037222894271687415 0.13896547280792443 66.98387198764175 -12.995229039525974)" id="L1_71"><path d="M503.5,476H487V267h16.5c2.737,0,5.257-1.491,6.575-3.891c1.317-2.4,1.222-5.327-0.247-7.636l-56-88   c-1.377-2.164-3.763-3.474-6.328-3.474H298.606L263,128.394V99h72.5c2.766,0,5.308-1.522,6.613-3.961   c1.305-2.438,1.162-5.398-0.373-7.699L328.514,67.5l13.227-19.84c1.535-2.301,1.677-5.261,0.373-7.699   C340.808,37.522,338.266,36,335.5,36H263v-8.5c0-4.142-3.358-7.5-7.5-7.5s-7.5,3.358-7.5,7.5v100.894L212.394,164H63.5   c-2.564,0-4.951,1.31-6.328,3.474l-56,88c-1.469,2.309-1.564,5.236-0.247,7.636C2.243,265.509,4.763,267,7.5,267H24v209H7.5   c-4.142,0-7.5,3.358-7.5,7.5s3.358,7.5,7.5,7.5h496c4.142,0,7.5-3.358,7.5-7.5S507.642,476,503.5,476z M443.383,179l46.455,73   H386.606l-73-73H443.383z M321.486,51l-8.227,12.34c-1.68,2.519-1.68,5.801,0,8.32L321.486,84H263V51H321.486z M67.617,179h129.776   l-73,73H21.163L67.617,179z M39,267h88.498c0.248,0,0.496-0.013,0.744-0.038c0.106-0.01,0.21-0.03,0.315-0.045   c0.137-0.02,0.274-0.036,0.411-0.063c0.122-0.024,0.24-0.058,0.36-0.088c0.117-0.029,0.235-0.056,0.351-0.09   c0.118-0.036,0.233-0.081,0.349-0.122c0.115-0.041,0.23-0.079,0.344-0.126c0.109-0.045,0.213-0.098,0.319-0.148   c0.115-0.055,0.232-0.106,0.345-0.167c0.103-0.055,0.2-0.118,0.3-0.177c0.11-0.065,0.222-0.128,0.329-0.2   c0.112-0.075,0.217-0.158,0.324-0.239c0.088-0.066,0.179-0.127,0.264-0.198c0.192-0.157,0.376-0.323,0.551-0.499L255.5,142.106   l122.696,122.695c0.175,0.175,0.36,0.341,0.551,0.499c0.085,0.07,0.175,0.131,0.263,0.197c0.108,0.081,0.214,0.165,0.326,0.24   c0.106,0.071,0.217,0.133,0.326,0.198c0.101,0.061,0.199,0.124,0.303,0.179c0.112,0.06,0.227,0.111,0.342,0.165   c0.107,0.051,0.213,0.104,0.323,0.15c0.112,0.046,0.226,0.083,0.339,0.124c0.117,0.042,0.233,0.087,0.353,0.124   c0.114,0.035,0.23,0.06,0.345,0.089c0.122,0.031,0.242,0.065,0.366,0.089c0.132,0.026,0.265,0.042,0.398,0.061   c0.109,0.016,0.217,0.036,0.328,0.047c0.246,0.024,0.493,0.037,0.74,0.037H472v209H311V371.5c0-12.958-10.542-23.5-23.5-23.5h-64   c-12.958,0-23.5,10.542-23.5,23.5V476H39V267z M296,380h-81v-8.5c0-4.687,3.813-8.5,8.5-8.5h64c4.687,0,8.5,3.813,8.5,8.5V380z    M215,395h33v81h-33V395z M263,395h33v81h-33V395z"/><path d="M255.5,323c30.603,0,55.5-24.897,55.5-55.5S286.103,212,255.5,212S200,236.897,200,267.5S224.897,323,255.5,323z    M255.5,227c22.332,0,40.5,18.168,40.5,40.5S277.832,308,255.5,308S215,289.832,215,267.5S233.168,227,255.5,227z"/><path d="M255.5,275c4.142,0,7.5-3.358,7.5-7.5v-24c0-4.142-3.358-7.5-7.5-7.5s-7.5,3.358-7.5,7.5V260h-16.5   c-4.142,0-7.5,3.358-7.5,7.5s3.358,7.5,7.5,7.5H255.5z"/><path d="M175.5,388h-40c-4.142,0-7.5,3.358-7.5,7.5v48c0,4.142,3.358,7.5,7.5,7.5h40c4.142,0,7.5-3.358,7.5-7.5v-48   C183,391.358,179.642,388,175.5,388z M168,403v9h-25v-9H168z M143,436v-9h25v9H143z"/><path d="M103.5,388h-40c-4.142,0-7.5,3.358-7.5,7.5v48c0,4.142,3.358,7.5,7.5,7.5h40c4.142,0,7.5-3.358,7.5-7.5v-48   C111,391.358,107.642,388,103.5,388z M96,403v9H71v-9H96z M71,436v-9h25v9H71z"/><path d="M173,292h-35c-5.514,0-10,4.486-10,10v53.5c0,4.142,3.358,7.5,7.5,7.5h40c4.142,0,7.5-3.358,7.5-7.5V302   C183,296.486,178.514,292,173,292z M168,307v17h-25v-17H168z M143,348v-9h25v9H143z"/><path d="M101,292H66c-5.514,0-10,4.486-10,10v53.5c0,4.142,3.358,7.5,7.5,7.5h40c4.142,0,7.5-3.358,7.5-7.5V302   C111,296.486,106.514,292,101,292z M96,307v17H71v-17H96z M71,348v-9h25v9H71z"/><path d="M407.5,451h40c4.142,0,7.5-3.358,7.5-7.5v-48c0-4.142-3.358-7.5-7.5-7.5h-40c-4.142,0-7.5,3.358-7.5,7.5v48   C400,447.642,403.358,451,407.5,451z M415,436v-9h25v9H415z M440,403v9h-25v-9H440z"/><path d="M335.5,451h40c4.142,0,7.5-3.358,7.5-7.5v-48c0-4.142-3.358-7.5-7.5-7.5h-40c-4.142,0-7.5,3.358-7.5,7.5v48   C328,447.642,331.358,451,335.5,451z M343,436v-9h25v9H343z M368,403v9h-25v-9H368z"/><path d="M407.5,363h40c4.142,0,7.5-3.358,7.5-7.5V302c0-5.514-4.486-10-10-10h-35c-5.514,0-10,4.486-10,10v53.5   C400,359.642,403.358,363,407.5,363z M415,348v-9h25v9H415z M440,307v17h-25v-17H440z"/><path d="M335.5,363h40c4.142,0,7.5-3.358,7.5-7.5V302c0-5.514-4.486-10-10-10h-35c-5.514,0-10,4.486-10,10v53.5   C328,359.642,331.358,363,335.5,363z M343,348v-9h25v9H343z M368,307v17h-25v-17H368z"/></g><g transform="matrix(0.11148886833202346 0.06503517355385882 -0.06503517355385882 0.11148886833202346 183.10785413678985 184.80984527721415)" id="L1_72"><path d="M511.976,416.063c-0.005-0.075-0.004-0.149-0.011-0.224c-0.027-0.297-0.07-0.588-0.131-0.873    c-0.006-0.028-0.015-0.056-0.022-0.084c-0.059-0.262-0.132-0.518-0.218-0.768c-0.023-0.067-0.048-0.132-0.073-0.198    c-0.084-0.227-0.179-0.448-0.284-0.663c-0.018-0.038-0.03-0.077-0.049-0.115l-40.112-79.118V73.72    c0-8.006-6.513-14.519-14.519-14.519H55.441c-8.006,0-14.519,6.513-14.519,14.519v260.298L0.811,413.137    c-0.019,0.038-0.031,0.077-0.049,0.115c-0.105,0.215-0.199,0.436-0.284,0.662c-0.025,0.066-0.05,0.132-0.073,0.199    c-0.085,0.251-0.159,0.508-0.218,0.77c-0.006,0.027-0.015,0.054-0.021,0.081c-0.061,0.286-0.104,0.577-0.131,0.874    c-0.007,0.074-0.007,0.149-0.011,0.223C0.014,416.217,0,416.371,0,416.529v19.026c0,9.509,7.735,17.244,17.244,17.244h477.512    c9.509,0,17.244-7.735,17.244-17.244v-19.026C512,416.371,511.986,416.217,511.976,416.063z M55.923,74.203h400.154v254.109    H55.923V74.203z M53.029,343.311H458.97l33.318,65.717h-164.78l-8.271-29.989c-1.684-6.105-7.282-10.369-13.615-10.369h-99.246    c-6.333,0-11.932,4.264-13.615,10.368l-8.271,29.99H19.711L53.029,343.311z M311.948,409.029H200.052l6.993-25.358h97.91    L311.948,409.029z M497,435.554c0,1.237-1.007,2.244-2.244,2.244H17.244c-1.237,0-2.244-1.007-2.244-2.244v-11.526h482V435.554z"/><path d="M432.577,213.756c-4.143,0-7.5,3.357-7.5,7.5v76.055H86.923v-76.055c0-4.143-3.357-7.5-7.5-7.5    c-4.143,0-7.5,3.357-7.5,7.5v79.294c0,6.485,5.275,11.761,11.761,11.761h344.633c6.485,0,11.761-5.275,11.761-11.761v-79.294    C440.077,217.115,436.72,213.756,432.577,213.756z"/><path d="M428.316,90.203H83.684c-6.485,0-11.761,5.275-11.761,11.761v79.294c0,4.143,3.357,7.5,7.5,7.5c4.143,0,7.5-3.357,7.5-7.5    v-76.055h338.154v76.055c0,4.143,3.357,7.5,7.5,7.5s7.5-3.357,7.5-7.5v-79.294C440.077,95.477,434.802,90.203,428.316,90.203z"/></g><g transform="matrix(0.08562713230598012 0.03314598805325063 -0.03314598805325063 0.08562713230598012 216.56464522153476 141.59390483315812)" id="L1_75"><path d="M255.985,59.99c-8.284,0-15,6.716-15,15s6.716,15,15,15c49.634,0,90.015,40.374,90.015,90c0,8.284,6.716,15,15,15    s15-6.716,15-15C376,113.822,322.162,59.99,255.985,59.99z"/><path d="M217.335,4.03c-67.77,14.161-122.72,68.585-137.179,136.776c-12.209,57.582,2.836,115.392,41.277,158.607    C140.224,320.536,151,348.419,151,375.99v30c0,19.96,13.067,36.917,31.093,42.79c5.928,35.025,36.328,63.209,73.907,63.209    c37.569,0,67.977-28.175,73.907-63.209C347.933,442.907,361,425.95,361,405.989v-30c0-27.625,10.812-55.173,30.442-77.569    C420.176,265.64,436,223.58,436,179.99C436,66.425,332.051-19.936,217.335,4.03z M256,481.99c-19.282,0-36.188-13.268-42.431-31.1    h84.861C292.188,468.722,275.282,481.99,256,481.99z M331,405.99c0,8.271-6.729,15-15,15H196c-8.271,0-15-6.729-15-15v-15h150    V405.99z M368.882,278.647c-20.92,23.867-33.791,52.647-37.057,82.343H180.178c-3.262-29.712-16.1-58.775-36.328-81.516    c-32.038-36.016-44.557-84.291-34.346-132.445C121.423,90.815,167.223,45.15,223.472,33.397C319.496,13.33,406,85.442,406,179.99    C406,216.302,392.818,251.339,368.882,278.647z"/><path d="M45,179.99H15c-8.284,0-15,6.716-15,15s6.716,15,15,15h30c8.284,0,15-6.716,15-15S53.284,179.99,45,179.99z"/><path d="M51.213,104.99L30,83.777c-5.857-5.858-15.355-5.858-21.213,0c-5.858,5.858-5.858,15.355,0,21.213L30,126.203    c5.857,5.858,15.355,5.859,21.213,0C57.071,120.345,57.071,110.848,51.213,104.99z"/><path d="M51.213,263.777c-5.858-5.858-15.356-5.858-21.213,0L8.787,284.99c-5.858,5.858-5.858,15.355,0,21.213    c5.857,5.858,15.355,5.859,21.213,0l21.213-21.213C57.071,279.132,57.071,269.635,51.213,263.777z"/><path d="M497,179.99h-30c-8.284,0-15,6.716-15,15s6.716,15,15,15h30c8.284,0,15-6.716,15-15S505.284,179.99,497,179.99z"/><path d="M503.213,83.777c-5.857-5.858-15.355-5.858-21.213,0l-21.213,21.213c-5.858,5.858-5.858,15.355,0,21.213    c5.857,5.857,15.355,5.858,21.213,0l21.213-21.213C509.071,99.132,509.071,89.635,503.213,83.777z"/><path d="M503.213,284.99L482,263.777c-5.857-5.858-15.355-5.858-21.213,0c-5.858,5.858-5.858,15.355,0,21.213L482,306.203    c5.857,5.857,15.355,5.858,21.213,0C509.071,300.345,509.071,290.848,503.213,284.99z"/></g><g transform="matrix(0.0693985529477727 -0.0693985529477727 0.0693985529477727 0.0693985529477727 121.46797724602864 150.9999781763866)" id="L1_76"><path d="M495.914,189.604c-18.965-15.914-47.343-13.424-63.228,5.506l-42.695,50.523V99.129c0-12.279-5.106-24.17-14.008-32.625    l-56.978-54.125C310.606,4.4,299.6,0.005,288.015,0.005H44.999C20.187,0.005,0,20.192,0,45.004v421.991    c0,24.812,20.187,44.999,44.999,44.999h299.994c24.812,0,44.999-20.187,44.999-44.999v-81.961    C391.835,382.851,501.116,253.407,501.46,253C517.447,233.948,514.969,205.592,495.914,189.604z M299.994,35.695    c60.013,57.008,55.751,52.841,56.876,54.309h-56.876V35.695z M359.992,466.995c0,8.271-6.729,15-15,15H44.999    c-8.271,0-15-6.729-15-15V45.004c0-8.271,6.729-15,15-15h224.995v74.998c0,8.284,6.716,15,15,15h74.998v161.129    c-6.443,7.624-58.178,68.843-63.77,75.46c-4.467,5.324-7.682,11.711-9.296,18.47l-13.94,58.356    c-1.319,5.526,0.596,11.324,4.948,14.976c4.356,3.656,10.399,4.529,15.607,2.272l55.05-23.862    c4.133-1.792,7.988-4.226,11.401-7.151V466.995z M324.315,369.827l22.978,19.28l-5.11,6.052c-1.487,1.774-3.398,3.199-5.523,4.12    l-27.524,11.931l6.971-29.178c0.538-2.253,1.609-4.382,3.064-6.116L324.315,369.827z M366.644,366.184l-22.967-19.271    c2.33-2.757,77.698-91.943,82.91-98.11l22.919,19.231L366.644,366.184z M478.509,233.682l-9.649,11.43l-22.908-19.222    l9.682-11.457c5.289-6.303,14.71-7.125,20.997-1.849C483.043,217.963,483.75,227.436,478.509,233.682z"/><path d="M224.995,90.003H74.998c-8.284,0-15,6.716-15,15s6.716,15,15,15h149.997c8.284,0,15-6.716,15-15    S233.279,90.003,224.995,90.003z"/><path d="M314.993,181.001H74.998c-8.284,0-15,6.716-15,15s6.716,15,15,15h239.995c8.284,0,15-6.716,15-15    S323.277,181.001,314.993,181.001z"/><path d="M314.993,271H74.998c-8.284,0-15,6.716-15,15c0,8.284,6.716,15,15,15h239.995c8.284,0,15-6.716,15-15    C329.993,277.715,323.277,271,314.993,271z"/><path d="M224.995,360.998H74.998c-8.284,0-15,6.716-15,15s6.716,15,15,15h149.997c8.284,0,15-6.716,15-15    S233.279,360.998,224.995,360.998z"/></g><path d="M464.944,378.17c-0.009-0.073-0.022-0.144-0.033-0.216c-0.034-0.233-0.079-0.462-0.134-0.688  c-0.018-0.072-0.035-0.143-0.055-0.215c-0.073-0.265-0.159-0.525-0.26-0.777c-0.009-0.023-0.016-0.047-0.025-0.069  c-0.118-0.287-0.255-0.565-0.406-0.833c-0.008-0.014-0.013-0.03-0.021-0.044L268.158,33.188c-0.034-0.059-0.073-0.111-0.108-0.169  c-0.081-0.134-0.163-0.267-0.253-0.395c-0.066-0.094-0.136-0.184-0.205-0.275c-0.076-0.099-0.152-0.198-0.232-0.292  c-0.087-0.103-0.178-0.2-0.27-0.297c-0.073-0.077-0.145-0.153-0.22-0.226c-0.101-0.098-0.206-0.191-0.311-0.283  c-0.078-0.067-0.155-0.134-0.235-0.198c-0.105-0.084-0.213-0.163-0.322-0.241c-0.092-0.066-0.185-0.13-0.28-0.192  c-0.1-0.065-0.202-0.125-0.305-0.185c-0.112-0.065-0.225-0.129-0.341-0.188c-0.091-0.047-0.184-0.09-0.276-0.133  c-0.131-0.061-0.262-0.119-0.397-0.172c-0.086-0.034-0.174-0.065-0.261-0.095c-0.141-0.05-0.283-0.097-0.428-0.138  c-0.091-0.026-0.183-0.048-0.275-0.071c-0.14-0.034-0.28-0.067-0.423-0.094c-0.11-0.021-0.221-0.035-0.332-0.051  c-0.125-0.017-0.25-0.035-0.378-0.046c-0.14-0.012-0.28-0.017-0.42-0.021c-0.079-0.002-0.156-0.012-0.236-0.012h-56.616  c-0.035,0-0.069,0.006-0.104,0.007c-0.258,0.004-0.514,0.021-0.77,0.051c-0.066,0.008-0.131,0.014-0.196,0.023  c-0.593,0.086-1.172,0.242-1.728,0.466c-0.064,0.026-0.127,0.054-0.19,0.082c-0.227,0.098-0.448,0.208-0.664,0.328  c-0.047,0.026-0.095,0.05-0.141,0.077c-0.516,0.302-0.998,0.669-1.435,1.096c-0.049,0.048-0.096,0.098-0.144,0.147  c-0.164,0.169-0.319,0.346-0.468,0.532c-0.049,0.061-0.1,0.121-0.147,0.184c-0.177,0.236-0.345,0.481-0.497,0.742  c-0.003,0.005-0.007,0.01-0.01,0.015c-0.001,0.002-0.001,0.003-0.002,0.005L1.005,375.3c-1.34,2.32-1.34,5.179,0,7.5l28.306,49.034  c0.009,0.016,0.021,0.03,0.031,0.046c0.158,0.269,0.33,0.531,0.522,0.781c0.001,0.001,0.001,0.001,0.002,0.002  c0.182,0.236,0.382,0.459,0.594,0.674c0.044,0.045,0.089,0.088,0.134,0.131c0.178,0.172,0.366,0.336,0.563,0.492  c0.047,0.038,0.093,0.077,0.141,0.113c0.241,0.181,0.49,0.353,0.758,0.508c0.265,0.153,0.536,0.281,0.81,0.398  c0.021,0.009,0.041,0.021,0.062,0.03c0.931,0.388,1.906,0.577,2.872,0.577c0.015,0,0.03-0.003,0.045-0.003h393.347  c2.68,0,5.155-1.43,6.495-3.75l28.309-49.031c0.01-0.018,0.017-0.038,0.028-0.056c0.151-0.267,0.289-0.541,0.407-0.827  c0.005-0.013,0.009-0.027,0.015-0.04c0.106-0.26,0.194-0.528,0.271-0.802c0.021-0.073,0.038-0.146,0.057-0.22  c0.055-0.221,0.099-0.445,0.133-0.673c0.012-0.078,0.026-0.155,0.036-0.233c0.033-0.279,0.054-0.561,0.056-0.848  c0-0.014,0.002-0.028,0.002-0.042c0-0.003,0-0.006,0-0.009C465,378.753,464.978,378.46,464.944,378.17z M35.807,413.084  L16.16,379.05L205.032,51.913l156.234,270.607H321.97L211.527,131.229c-0.014-0.024-0.03-0.045-0.044-0.068  c-0.081-0.137-0.169-0.269-0.259-0.401c-0.052-0.076-0.101-0.155-0.156-0.228c-0.085-0.116-0.178-0.226-0.27-0.338  c-0.069-0.083-0.135-0.168-0.207-0.247c-0.079-0.088-0.166-0.17-0.25-0.255c-0.094-0.094-0.186-0.19-0.284-0.278  c-0.071-0.064-0.146-0.123-0.22-0.184c-0.12-0.1-0.239-0.2-0.364-0.292c-0.068-0.05-0.14-0.095-0.21-0.143  c-0.136-0.093-0.273-0.185-0.415-0.268c-0.023-0.014-0.043-0.03-0.067-0.043c-0.06-0.035-0.122-0.061-0.183-0.094  c-0.132-0.071-0.263-0.141-0.399-0.204c-0.107-0.05-0.214-0.094-0.322-0.138c-0.113-0.046-0.225-0.092-0.34-0.133  c-0.128-0.046-0.258-0.085-0.387-0.124c-0.099-0.029-0.197-0.058-0.296-0.083c-0.141-0.035-0.282-0.065-0.423-0.092  c-0.095-0.018-0.191-0.036-0.287-0.05c-0.14-0.021-0.28-0.037-0.421-0.05c-0.104-0.01-0.208-0.018-0.313-0.023  c-0.13-0.007-0.26-0.009-0.389-0.009c-0.118,0-0.236,0.002-0.354,0.008c-0.117,0.006-0.232,0.015-0.348,0.026  c-0.129,0.012-0.258,0.027-0.386,0.046c-0.108,0.016-0.214,0.035-0.321,0.056c-0.131,0.025-0.262,0.053-0.392,0.085  c-0.109,0.027-0.217,0.059-0.325,0.091c-0.121,0.036-0.241,0.073-0.36,0.115c-0.124,0.044-0.245,0.093-0.366,0.143  c-0.1,0.041-0.199,0.082-0.298,0.128c-0.143,0.066-0.283,0.14-0.422,0.216c-0.055,0.03-0.112,0.054-0.166,0.085  c-0.021,0.012-0.04,0.027-0.061,0.039c-0.148,0.087-0.292,0.183-0.435,0.281c-0.064,0.044-0.13,0.086-0.193,0.132  c-0.13,0.095-0.254,0.198-0.377,0.302c-0.069,0.058-0.141,0.114-0.208,0.174c-0.1,0.091-0.195,0.189-0.291,0.286  c-0.082,0.082-0.166,0.163-0.243,0.248c-0.073,0.081-0.141,0.167-0.21,0.252c-0.091,0.11-0.183,0.219-0.267,0.334  c-0.054,0.074-0.104,0.153-0.156,0.229c-0.089,0.132-0.178,0.263-0.259,0.4c-0.014,0.023-0.03,0.044-0.044,0.068L35.807,413.084z   M304.649,322.521H162.031l71.309-123.51L304.649,322.521z M424.861,420.584H48.797l156.235-270.606l19.648,34.032L114.239,375.3  c-0.658,1.141-1.005,2.437-1.005,3.753c0,4.143,3.357,7.5,7.5,7.5h49.636c4.143,0,7.5-3.357,7.5-7.5s-3.357-7.5-7.5-7.5h-36.647  l19.649-34.032h164.26c0.005,0,0.01,0.001,0.015,0.001s0.01-0.001,0.015-0.001h52.265l19.648,34.032H200.37  c-4.143,0-7.5,3.357-7.5,7.5s3.357,7.5,7.5,7.5h202.187c0.005,0,0.01,0.001,0.015,0.001s0.01-0.001,0.015-0.001h41.922  L424.861,420.584z M406.896,371.553L218.022,44.413h39.278l187.264,327.14H406.896z" transform="matrix(0.1317030455622515 0.04721430150693689 -0.04721430150693689 0.1317030455622515 55.35636611306968 255.40171591234403)" id="L1_78"/><path d="M343.746,154.841c-12.696,0-24.804,2.558-35.842,7.18l-26.394-51.211h36.89c4.002,0,7.258,3.256,7.258,7.258  s-3.256,7.258-7.258,7.258h-7.871c-4.143,0-7.5,3.358-7.5,7.5s3.357,7.5,7.5,7.5h7.871c12.273,0,22.258-9.985,22.258-22.258  s-9.984-22.258-22.258-22.258h-49.192c-2.615,0-5.042,1.363-6.404,3.596c-1.361,2.233-1.461,5.015-0.263,7.34l13.125,25.467H167.423  l-10.92-21.403h17.269c4.143,0,7.5-3.358,7.5-7.5s-3.357-7.5-7.5-7.5h-49.193c-4.143,0-7.5,3.358-7.5,7.5s3.357,7.5,7.5,7.5h15.084  l14.576,28.568l-17.132,26.543c-13.113-7.065-28.101-11.08-44.011-11.08C41.763,154.841,0,196.603,0,247.936  c0,51.333,41.763,93.096,93.096,93.096c48.808,0,88.961-37.757,92.793-85.596h22.007l-8.549,27.818h-4.922  c-4.143,0-7.5,3.358-7.5,7.5s3.357,7.5,7.5,7.5h27c4.143,0,7.5-3.358,7.5-7.5s-3.357-7.5-7.5-7.5h-6.386l9.869-32.114l62.406-96.327  l7.269,14.103c-26.357,16.458-43.933,45.723-43.933,79.02c0,51.333,41.763,93.096,93.097,93.096  c51.333,0,93.096-41.763,93.096-93.096C436.842,196.603,395.079,154.841,343.746,154.841z M162.121,154.826l43.678,85.61h-19.911  c-2.162-26.985-15.882-50.758-36.193-66.359L162.121,154.826z M170.824,240.436h-63.96l34.661-53.699  C157.734,199.592,168.745,218.724,170.824,240.436z M93.096,326.032C50.033,326.032,15,290.999,15,247.936  c0-43.062,35.033-78.096,78.096-78.096c12.914,0,25.095,3.17,35.837,8.743l-42.139,65.285c-1.489,2.307-1.598,5.244-0.284,7.655  c1.313,2.411,3.84,3.912,6.586,3.912h77.728C167.036,294.992,133.628,326.032,93.096,326.032z M218.819,232.949l-43.743-85.737  h99.289L218.819,232.949z M343.746,326.032c-43.063,0-78.097-35.034-78.097-78.096c0-27.498,14.298-51.704,35.838-65.623  l35.592,69.059c1.332,2.583,3.954,4.065,6.673,4.065c1.157,0,2.331-0.269,3.43-0.835c3.683-1.897,5.129-6.42,3.231-10.103  l-35.603-69.079c8.956-3.586,18.714-5.581,28.936-5.581c43.063,0,78.096,35.034,78.096,78.096  C421.842,290.999,386.809,326.032,343.746,326.032z" transform="matrix(0.10629138684312797 0.08857616015840968 -0.08857616015840968 0.10629138684312797 28.11754802704795 303.47412183324656)" id="L1_79"/><path d="m393.453125 339.550781c-5.304687-17.050781-14.667969-32.558593-27.28125-45.199219l-265.644531-265.644531c-3.90625-3.902343-10.238282-3.902343-14.140625 0l-1.484375 1.484375-20.992188-21.261718c-5.636718-5.710938-13.328125-8.929688-21.355468-8.929688-8.027344 0-15.71875 3.21875-21.355469 8.929688l-12.316407 12.484374c-11.539062 11.757813-11.472656 30.605469.144532 42.285157l21.109375 21.109375-7.765625 7.679687c-9.464844 9.359375-14.808594 22.105469-14.84375 35.414063-.039063 13.308594 5.230468 26.082031 14.640625 35.496094l80.035156 80.03125c3.90625 3.90625 10.238281 3.90625 14.144531 0 3.902344-3.902344 3.902344-10.234376-.003906-14.140626l-80.03125-80.035156c-11.453125-11.449218-11.746094-29.925781-.664062-41.730468l119.71875 119.71875 21.863281 21.867187 14.148437 14.140625 102.945313 102.945312c12.636719 12.617188 28.148437 21.976563 45.199219 27.285157l60.027343 18.613281c3.542969 1.097656 7.40625.144531 10.03125-2.480469s3.578125-6.488281 2.480469-10.035156zm-370.332031-304.089843 12.3125-12.484376c1.878906-1.90625 4.445312-2.976562 7.121094-2.976562 2.675781 0 5.242187 1.070312 7.121093 2.976562l21.082031 21.355469-26.398437 26.40625-21.191406-21.183593c-3.871094-3.890626-3.894531-10.175782-.046875-14.09375zm26.777344 58.023437 43.558593-43.5625 106.128907 106.128906-43.5625 43.5625zm120.269531 120.269531 43.558593-43.5625 21.214844 21.214844-43.5625 43.5625zm35.355469 35.355469 43.5625-43.5625 102.941406 102.945313c1.039062 1.042968 2.050781 2.113281 3.035156 3.207031l-43.390625 43.390625c-1.089844-.988282-2.164063-2-3.199219-3.035156zm139.925781 125.265625c-6.019531-1.871094-11.824219-4.367188-17.324219-7.453125l38.769531-38.769531c3.085938 5.496094 5.585938 11.304687 7.457031 17.324218l12.988282 41.886719zm0 0" transform="matrix(0.1149840802912899 -0.04106574249613185 0.04106574249613185 0.1149840802912899 287.32024156706234 75.35829765597255)" id="L1_82"/><g transform="matrix(0.7669208745388464 0.5991569564698639 -0.5991569564698639 0.7669208745388464 35.200161583391676 31.418508113268828)" id="L1_87" fill="#000000"><path d="m57 12h-3c-1.5861087.0064401-2.8931328 1.2464261-2.983 2.83-.9145519-.5386476-1.9556226-.8250542-3.017-.83h-2v-1c0-1.6568542-1.3431458-3-3-3v-2c-.0049599-4.41622192-3.5837781-7.99504012-8-8h-16c-4.4162219.00495988-7.9950401 3.58377808-8 8v2c-1.65685425 0-3 1.3431458-3 3v1h-2c-3.31233757.0033074-5.99669262 2.6876624-6 6v28c.00330738 3.3123376 2.68766243 5.9966926 6 6h12.032c-.012.166-.032.328-.032.5 0 2.437 1.169 4.283 2.751 4.465.007 0 .011.006.018.008 3.031635.6388195 6.1228426.9519296 9.221.934.417 0 .844-.006 1.278-.018 7.843-.221 14.484-2.526 19.2-6.665 7.23-6.339 10.178-16.862 8.782-31.267.4792632-.5396678.7458395-1.235254.75-1.957v-5c0-1.6568542-1.3431458-3-3-3zm-4 3c0-.5522847.4477153-1 1-1h3c.5522847 0 1 .4477153 1 1v5c0 .5522847-.4477153 1-1 1h-3c-.5522847 0-1-.4477153-1-1zm-9-2v1h-10v-1c0-.5522847.4477153-1 1-1h8c.5522847 0 1 .4477153 1 1zm-22 1v-1c0-1.6568542-1.3431458-3-3-3v-2h16v2c-1.6568542 0-3 1.3431458-3 3v1zm-9-6c.0033074-3.31233757 2.6876624-5.99669262 6-6h16c3.3123376.00330738 5.9966926 2.68766243 6 6v2h-4v-2c0-1.1045695-.8954305-2-2-2h-16c-1.1045695 0-2 .8954305-2 2v2h-4zm-3 5c0-.5522847.4477153-1 1-1h8c.5522847 0 1 .4477153 1 1v1h-10zm-4 39c-2.209139 0-4-1.790861-4-4v-28c0-2.209139 1.790861-4 4-4h42c1.1534978.0107005 2.2465482.5175116 3 1.391v2.609c.0031795.8829459.3976116 1.7190541 1.077 2.283-.8864926 2.1868217-1.9143302 4.3136473-3.077 6.367v-7.65c0-1.1045695-.8954305-2-2-2h-40c-1.1045695 0-2 .8954305-2 2v26c0 1.1045695.8954305 2 2 2h14.588c.109.191.214.383.328.572l-1.211.47c-1.0367515.2112291-1.8836709.9565181-2.225 1.958zm38.754-17.086c-1.0854445-3.2561898-4.1836322-5.4103539-7.614-5.294-1.4024806-.0020801-2.7841047.3395491-4.024.995.264-1.975 1.143-5.428 4.08-6.016.5345276-.1148093.8777704-.63761.7706027-1.173722s-.6250156-.8867823-1.1626027-.787278c-4.415.883-5.469 5.741-5.721 8.091-.146-.083-.288-.17-.441-.246-3.211627-1.6421254-7.1191961-.9926904-9.627 1.6-1.928 2.221-2.6 5.623-1.943 9.838.2799925 1.7516556.7879706 3.4591477 1.511 5.079h-13.583v-26h40v10.865c-.7133333 1.056-1.462 2.0723333-2.246 3.049zm-4 4.387c-4.849 4.608-10.7 7.1-16.932 9.532-1.4046849-2.1920773-2.3469341-4.647914-2.769-7.217-.392-2.521-.455-5.994 1.479-8.222 1.773-2.055 5.068-2.183 7.226-1.12.5687517.2791791 1.0887605.6482502 1.54 1.093.3902698.3890509 1.0217302.3890509 1.412 0 1.1925837-1.1408858 2.7846937-1.7691141 4.435-1.75 3.231 0 5.86 2.243 5.86 5 0 .117-.007.243-.009.364-.73.803-1.471 1.583-2.247 2.319zm-19.754 12.699c.291 0 1 .878 1 2.5s-.71 2.5-1 2.5-1-.876-1-2.5.708-2.5 1-2.5zm28.163-.287c-8.4 7.373-20.941 6.416-25.85 5.687.4685225-.8937771.7047666-1.8910227.687-2.9.0324625-1.1462971-.2762566-2.2764108-.887-3.247 6.95-2.692 13.511-5.273 19.013-10.5.865-.822 1.688-1.694 2.492-2.589.022-.018.036-.044.057-.064 3.935955-4.4625407 7.0723071-9.5708264 9.271-15.1h.054 3c.1122415-.0046883.2241053-.0160417.335-.034 1.144 13.299-1.595 22.974-8.173 28.747z" id="L1_83"/><path d="m27 33.619c-1.0702387-.0315929-2.1061138.3796808-2.8632165 1.1367835s-1.1683764 1.7929778-1.1367835 2.8632165c0 .5522847.4477153 1 1 1s1-.4477153 1-1c-.034612-.541366.1658096-1.07138.5499688-1.4543903.3841593-.3830102.9147713-.5818432 1.4560312-.5456097.5522847-.0016569.9986568-.4507153.9969999-1.003-.0016568-.5522847-.4507152-.9986568-1.0029999-.997z" id="L1_84"/><path d="m10 23c-.55228475 0-1 .4477153-1 1v2c0 .5522847.44771525 1 1 1 .5522847 0 1-.4477153 1-1v-2c0-.5522847-.4477153-1-1-1z" id="L1_85"/><path d="m10 29c-.55228475 0-1 .4477153-1 1v14c0 .5522847.44771525 1 1 1 .5522847 0 1-.4477153 1-1v-14c0-.5522847-.4477153-1-1-1z" id="L1_86"/><path d="m54.2 36.02c-.5411704-.1079009-1.0674584.2429578-1.176.784-.029.143-3.043 14.37-18.2 17.213-.5064209.0945103-.8581719.5582875-.8126278 1.0714347s.4734778.9077239.9886278.9115653c.062068.0002531.1240176-.0054396.185-.017 16.474-3.089 19.765-18.63 19.8-18.787.1078546-.541492-.2435512-1.0679291-.785-1.176z" id="Shape"/></g><path d="M501.912,397.155L114.39,9.633C101.555-3.2,80.669-3.2,67.834,9.633L9.627,67.842c-12.836,12.836-12.836,33.721,0,46.557    l44.078,44.078c2.97,2.97,7.785,2.97,10.754,0c2.97-2.97,2.97-7.785,0-10.754l-44.078-44.078c-6.906-6.906-6.906-18.143,0-25.047    L78.59,20.389c6.907-6.908,18.143-6.908,25.048,0l1.309,1.309l-42.352,42.35c-2.97,2.971-2.97,7.785,0,10.754    c1.484,1.484,3.431,2.227,5.377,2.227c1.946,0,3.892-0.742,5.377-2.227l42.351-42.352l14.194,14.194l-18.981,18.981    c-3.031,3.031-3.199,8.159-0.095,11.115c1.467,1.397,3.355,2.096,5.243,2.096c1.946,0,3.892-0.742,5.377-2.227l19.211-19.21    l14.194,14.195l-19.21,19.21c-2.97,2.971-2.97,7.785,0,10.754c1.484,1.484,3.431,2.227,5.377,2.227    c1.946,0,3.892-0.742,5.377-2.227l19.211-19.21l14.194,14.194l-19.21,19.211c-2.97,2.97-2.97,7.785,0,10.753    c1.484,1.484,3.431,2.227,5.377,2.227c1.946,0,3.892-0.742,5.377-2.228l19.21-19.21l14.195,14.195l-42.351,42.351    c-2.97,2.971-2.97,7.785,0,10.754c1.484,1.484,3.431,2.227,5.377,2.227s3.892-0.742,5.377-2.227l42.352-42.351l14.194,14.195    l-18.981,18.981c-3.031,3.031-3.199,8.159-0.094,11.115c1.467,1.397,3.355,2.096,5.243,2.096c1.946,0,3.892-0.742,5.377-2.227    l19.21-19.211l14.194,14.194l-18.981,18.981c-3.031,3.031-3.199,8.159-0.095,11.115c1.467,1.397,3.355,2.096,5.243,2.096    c1.946,0,3.892-0.742,5.377-2.227l19.21-19.21l14.195,14.194l-19.21,19.21c-2.97,2.971-2.97,7.785,0,10.754    c1.485,1.484,3.432,2.227,5.378,2.227c1.946,0,3.892-0.742,5.378-2.227l19.21-19.21l14.194,14.195l-42.351,42.351    c-2.97,2.971-2.97,7.785,0,10.754c1.485,1.484,3.432,2.227,5.378,2.227s3.892-0.742,5.378-2.227l42.351-42.351l14.194,14.194    l-19.21,19.21c-2.97,2.971-2.97,7.785,0,10.754c1.485,1.484,3.432,2.227,5.378,2.227s3.892-0.742,5.378-2.227l19.21-19.21    l14.193,14.194l-19.21,19.21c-2.97,2.971-2.97,7.785,0,10.754c1.485,1.484,3.432,2.227,5.378,2.227s3.892-0.742,5.378-2.227    l19.21-19.21l14.194,14.195l-19.21,19.21c-2.97,2.971-2.97,7.785,0,10.754c1.485,1.484,3.432,2.227,5.378,2.227    s3.892-0.742,5.378-2.227l19.21-19.21l14.195,14.194l-42.351,42.351c-2.97,2.971-2.97,7.785,0,10.754    c1.485,1.484,3.432,2.227,5.378,2.227c1.946,0,3.892-0.742,5.378-2.227l42.351-42.351l14.195,14.194l-19.21,19.21    c-2.97,2.971-2.97,7.785,0,10.754c1.485,1.484,3.432,2.227,5.378,2.227c1.946,0,3.892-0.742,5.378-2.227l19.21-19.21    l14.194,14.194l-19.21,19.21c-2.97,2.971-2.97,7.785,0,10.754c1.485,1.484,3.432,2.227,5.378,2.227s3.892-0.742,5.378-2.227    l19.21-19.21l14.194,14.194l-19.21,19.21c-2.97,2.971-2.97,7.785,0,10.754c1.485,1.484,3.432,2.227,5.378,2.227    s3.892-0.742,5.378-2.227l19.21-19.21l1.386,1.386c3.14,3.14,5.175,7.282,5.44,11.714c0.307,5.135-1.553,10.016-5.156,13.618    l-58.209,58.208c-6.906,6.908-18.142,6.908-25.046,0L89.552,172.815c-2.97-2.97-7.785-2.97-10.754,0    c-2.97,2.97-2.97,7.785,0,10.754l318.796,318.796c6.418,6.417,14.848,9.626,23.278,9.626c8.429,0,16.86-3.209,23.278-9.626    l58.209-58.208c6.349-6.35,9.786-14.838,9.637-23.839C511.851,411.596,508.08,403.324,501.912,397.155z" transform="matrix(0.03996112590139216 -0.10789504833881006 0.10789504833881006 0.03996112590139216 -25.85069426332757 150.3907377560368)" id="L1_88"/><g transform="matrix(0.11411471012781975 -0.023245589004949458 0.023245589004949458 0.11411471012781975 25.410627011751224 148.43428223033524)" id="L1_94"><path d="m256 100c-5.519531 0-10 4.480469-10 10s4.480469 10 10 10 10-4.480469 10-10-4.480469-10-10-10zm0 0"/><path d="m90 280c5.519531 0 10-4.480469 10-10s-4.480469-10-10-10-10 4.480469-10 10 4.480469 10 10 10zm0 0"/><path d="m336 0c-90.027344 0-163.917969 62.070312-169.632812 140.253906-85.738282 4.300782-166.367188 66.125-166.367188 149.746094 0 34.945312 13.828125 68.804688 39 95.632812 4.980469 20.53125-1.066406 42.292969-16.070312 57.296876-2.859376 2.859374-3.714844 7.160156-2.167969 10.898437 1.546875 3.734375 5.191406 6.171875 9.238281 6.171875 28.519531 0 56.003906-11.183594 76.425781-30.890625 19.894531 6.78125 45.851563 10.890625 69.574219 10.890625 90.015625 0 163.898438-62.054688 169.628906-140.222656 20.9375-.929688 42.714844-4.796875 59.945313-10.667969 20.421875 19.707031 47.90625 30.890625 76.425781 30.890625 4.046875 0 7.691406-2.4375 9.238281-6.171875 1.546875-3.738281.691407-8.039063-2.167969-10.898437-15.003906-15.003907-21.050781-36.765626-16.070312-57.296876 25.171875-26.828124 39-60.6875 39-95.632812 0-86.886719-86.839844-150-176-150zm-160 420c-23.601562 0-50.496094-4.632812-68.511719-11.800781-3.859375-1.539063-8.269531-.527344-11.078125 2.539062-12.074218 13.199219-27.773437 22.402344-44.878906 26.632813 9.425781-18.058594 11.832031-39.347656 6.097656-59.519532-.453125-1.589843-1.292968-3.042968-2.445312-4.226562-22.6875-23.367188-35.183594-53.066406-35.183594-83.625 0-70.46875 71.4375-130 156-130 79.851562 0 150 55.527344 150 130 0 71.683594-67.289062 130-150 130zm280.816406-186.375c-1.152344 1.1875-1.992187 2.640625-2.445312 4.226562-5.734375 20.171876-3.328125 41.460938 6.097656 59.519532-17.105469-4.226563-32.804688-13.433594-44.878906-26.632813-2.808594-3.0625-7.21875-4.078125-11.078125-2.539062-15.613281 6.210937-37.886719 10.511719-58.914063 11.550781-2.921875-37.816406-21.785156-73.359375-54.035156-99.75h130.4375c5.523438 0 10-4.476562 10-10s-4.476562-10-10-10h-161.160156c-22.699219-11.554688-48.1875-18.292969-74.421875-19.707031 5.746093-67.164063 70.640625-120.292969 149.582031-120.292969 84.5625 0 156 59.53125 156 130 0 30.558594-12.496094 60.257812-35.183594 83.625zm0 0"/><path d="m256 260h-126c-5.523438 0-10 4.476562-10 10s4.476562 10 10 10h126c5.523438 0 10-4.476562 10-10s-4.476562-10-10-10zm0 0"/><path d="m256 320h-166c-5.523438 0-10 4.476562-10 10s4.476562 10 10 10h166c5.523438 0 10-4.476562 10-10s-4.476562-10-10-10zm0 0"/><path d="m422 100h-126c-5.523438 0-10 4.476562-10 10s4.476562 10 10 10h126c5.523438 0 10-4.476562 10-10s-4.476562-10-10-10zm0 0"/></g><g transform="matrix(0.7942098099704716 -0.3486774825828438 0.3486774825828438 0.7942098099704716 68.69656894271216 194.16662616565634)" id="L1_95"><path d="m71 41.34a1 1 0 0 1 -1-1v-6.23a1 1 0 0 1 2 0v6.23a1 1 0 0 1 -1 1z"/><path d="m71 64.36h-68a1 1 0 0 1 -1-1v-42.42a1 1 0 0 1 1-1h5.21a1 1 0 0 1 0 2h-4.21v40.42h66v-5.78a1 1 0 0 1 2 0v6.78a1 1 0 0 1 -1 1z"/><path d="m71 52.58a1 1 0 0 1 -1-1v-6.24a1 1 0 0 1 2 0v6.24a1 1 0 0 1 -1 1z"/><path d="m71 30.11a1 1 0 0 1 -1-1v-7.17h-4.21a1 1 0 0 1 0-2h5.21a1 1 0 0 1 1 1v8.17a1 1 0 0 1 -1 1z"/><path d="m65.8 58.9h-57.595a1 1 0 0 1 -1-1v-41.769a1 1 0 0 1 1-1h5.285a1 1 0 1 1 0 2h-4.285v39.769h55.595v-39.769h-4.29a1 1 0 1 1 0-2h5.29a1 1 0 0 1 1 1v41.769a1 1 0 0 1 -1 1z"/><path d="m37 58.909a1 1 0 0 1 -1-1v-36.973a1 1 0 0 1 .278-.692c5.922-6.182 13.627-8.914 24.26-8.581a1 1 0 0 1 .969 1v39.437a1 1 0 0 1 -2 0v-38.459c-9.364-.113-16.22 2.343-21.507 7.7v36.568a1 1 0 0 1 -1 1z"/><path d="m37 58.909a1 1 0 0 1 -1-1v-36.567c-5.293-5.359-12.173-7.842-21.517-7.7v38.458a1 1 0 0 1 -2 0v-39.437a1 1 0 0 1 .97-1c10.627-.33 18.339 2.4 24.269 8.581a1 1 0 0 1 .278.692v36.973a1 1 0 0 1 -1 1z"/><path d="m37 58.911a1 1 0 0 1 -.441-1.9c7.7-3.765 23.169-5.821 23.823-5.907a1 1 0 0 1 .26 1.983c-.158.021-15.8 2.1-23.2 5.721a1 1 0 0 1 -.442.103z"/><path d="m37 58.911a1 1 0 0 1 -.439-.1c-7.409-3.623-23.046-5.7-23.2-5.721a1 1 0 1 1 .26-1.983c.654.086 16.121 2.142 23.822 5.907a1 1 0 0 1 -.44 1.9z"/><path d="m41.991 28.074a1 1 0 0 1 -.53-1.849 28.1 28.1 0 0 1 14.162-4.355 1 1 0 0 1 .058 2 26.129 26.129 0 0 0 -13.163 4.054 1 1 0 0 1 -.527.15z"/><path d="m41.991 35a1 1 0 0 1 -.53-1.849 28.111 28.111 0 0 1 14.161-4.351.973.973 0 0 1 1.029.97 1 1 0 0 1 -.969 1.029 26.147 26.147 0 0 0 -13.164 4.055 1 1 0 0 1 -.527.146z"/><path d="m41.991 41.926a1 1 0 0 1 -.53-1.849 28.1 28.1 0 0 1 14.162-4.355 1 1 0 0 1 .058 2 26.116 26.116 0 0 0 -13.163 4.054 1 1 0 0 1 -.527.15z"/><path d="m41.991 48.852a1 1 0 0 1 -.53-1.852 28.105 28.105 0 0 1 14.162-4.356 1 1 0 0 1 .058 2 26.13 26.13 0 0 0 -13.163 4.056 1 1 0 0 1 -.527.152z"/><path d="m32.009 28.074a1 1 0 0 1 -.527-.151 26.129 26.129 0 0 0 -13.163-4.054 1 1 0 0 1 -.97-1.029 1.013 1.013 0 0 1 1.028-.97 28.1 28.1 0 0 1 14.162 4.355 1 1 0 0 1 -.53 1.849z"/><path d="m32.009 35a1 1 0 0 1 -.527-.151 26.147 26.147 0 0 0 -13.164-4.055 1 1 0 0 1 -.969-1.029.986.986 0 0 1 1.029-.97 28.111 28.111 0 0 1 14.161 4.356 1 1 0 0 1 -.53 1.849z"/><path d="m32.009 41.926a1 1 0 0 1 -.527-.151 26.116 26.116 0 0 0 -13.163-4.054 1 1 0 0 1 .058-2 28.1 28.1 0 0 1 14.162 4.355 1 1 0 0 1 -.53 1.849z"/><path d="m32.009 48.852a1 1 0 0 1 -.527-.151 26.13 26.13 0 0 0 -13.163-4.055 1 1 0 0 1 -.97-1.028 1.017 1.017 0 0 1 1.028-.971 28.105 28.105 0 0 1 14.162 4.353 1 1 0 0 1 -.53 1.849z"/></g></defs><g fi:class="KUsePattern"><pattern id="pattern_L1_48" width="350" height="350" patternUnits="userSpaceOnUse"><use xlink:href="#L1_48" x="-350" y="-350"/><use xlink:href="#L1_48" x="0" y="-350"/><use xlink:href="#L1_48" x="350" y="-350"/><use xlink:href="#L1_48" x="-350" y="0"/><use xlink:href="#L1_48" x="0" y="0"/><use xlink:href="#L1_48" x="350" y="0"/><use xlink:href="#L1_48" x="-350" y="350"/><use xlink:href="#L1_48" x="0" y="350"/><use xlink:href="#L1_48" x="350" y="350"/></pattern><rect x="0" y="0" width="100%" height="100%" fill="url(#pattern_L1_48)"/></g><g fi:class="KUsePattern"><pattern id="pattern_L1_45" width="350" height="350" patternUnits="userSpaceOnUse"><use xlink:href="#L1_45" x="-350" y="-350"/><use xlink:href="#L1_45" x="0" y="-350"/><use xlink:href="#L1_45" x="350" y="-350"/><use xlink:href="#L1_45" x="-350" y="0"/><use xlink:href="#L1_45" x="0" y="0"/><use xlink:href="#L1_45" x="350" y="0"/><use xlink:href="#L1_45" x="-350" y="350"/><use xlink:href="#L1_45" x="0" y="350"/><use xlink:href="#L1_45" x="350" y="350"/></pattern><rect x="0" y="0" width="100%" height="100%" fill="url(#pattern_L1_45)"/></g><g fi:class="KUsePattern"><pattern id="pattern_L1_49" width="350" height="350" patternUnits="userSpaceOnUse"><use xlink:href="#L1_49" x="-350" y="-350"/><use xlink:href="#L1_49" x="0" y="-350"/><use xlink:href="#L1_49" x="350" y="-350"/><use xlink:href="#L1_49" x="-350" y="0"/><use xlink:href="#L1_49" x="0" y="0"/><use xlink:href="#L1_49" x="350" y="0"/><use xlink:href="#L1_49" x="-350" y="350"/><use xlink:href="#L1_49" x="0" y="350"/><use xlink:href="#L1_49" x="350" y="350"/></pattern><rect x="0" y="0" width="100%" height="100%" fill="url(#pattern_L1_49)"/></g><g fi:class="KUsePattern"><pattern id="pattern_L1_50" width="350" height="350" patternUnits="userSpaceOnUse"><use xlink:href="#L1_50" x="-350" y="-350"/><use xlink:href="#L1_50" x="0" y="-350"/><use xlink:href="#L1_50" x="350" y="-350"/><use xlink:href="#L1_50" x="-350" y="0"/><use xlink:href="#L1_50" x="0" y="0"/><use xlink:href="#L1_50" x="350" y="0"/><use xlink:href="#L1_50" x="-350" y="350"/><use xlink:href="#L1_50" x="0" y="350"/><use xlink:href="#L1_50" x="350" y="350"/></pattern><rect x="0" y="0" width="100%" height="100%" fill="url(#pattern_L1_50)"/></g><g fi:class="KUsePattern"><pattern id="pattern_L1_52" width="350" height="350" patternUnits="userSpaceOnUse"><use xlink:href="#L1_52" x="-350" y="-350"/><use xlink:href="#L1_52" x="0" y="-350"/><use xlink:href="#L1_52" x="350" y="-350"/><use xlink:href="#L1_52" x="-350" y="0"/><use xlink:href="#L1_52" x="0" y="0"/><use xlink:href="#L1_52" x="350" y="0"/><use xlink:href="#L1_52" x="-350" y="350"/><use xlink:href="#L1_52" x="0" y="350"/><use xlink:href="#L1_52" x="350" y="350"/></pattern><rect x="0" y="0" width="100%" height="100%" fill="url(#pattern_L1_52)"/></g><g fi:class="KUsePattern"><pattern id="pattern_L1_58" width="350" height="350" patternUnits="userSpaceOnUse"><use xlink:href="#L1_58" x="-350" y="-350"/><use xlink:href="#L1_58" x="0" y="-350"/><use xlink:href="#L1_58" x="350" y="-350"/><use xlink:href="#L1_58" x="-350" y="0"/><use xlink:href="#L1_58" x="0" y="0"/><use xlink:href="#L1_58" x="350" y="0"/><use xlink:href="#L1_58" x="-350" y="350"/><use xlink:href="#L1_58" x="0" y="350"/><use xlink:href="#L1_58" x="350" y="350"/></pattern><rect x="0" y="0" width="100%" height="100%" fill="url(#pattern_L1_58)"/></g><g fi:class="KUsePattern"><pattern id="pattern_L1_59" width="350" height="350" patternUnits="userSpaceOnUse"><use xlink:href="#L1_59" x="-350" y="-350"/><use xlink:href="#L1_59" x="0" y="-350"/><use xlink:href="#L1_59" x="350" y="-350"/><use xlink:href="#L1_59" x="-350" y="0"/><use xlink:href="#L1_59" x="0" y="0"/><use xlink:href="#L1_59" x="350" y="0"/><use xlink:href="#L1_59" x="-350" y="350"/><use xlink:href="#L1_59" x="0" y="350"/><use xlink:href="#L1_59" x="350" y="350"/></pattern><rect x="0" y="0" width="100%" height="100%" fill="url(#pattern_L1_59)"/></g><g fi:class="KUsePattern" opacity="1"><pattern id="pattern_L1_60" width="350" height="350" patternUnits="userSpaceOnUse"><use xlink:href="#L1_60" x="-350" y="-350"/><use xlink:href="#L1_60" x="0" y="-350"/><use xlink:href="#L1_60" x="350" y="-350"/><use xlink:href="#L1_60" x="-350" y="0"/><use xlink:href="#L1_60" x="0" y="0"/><use xlink:href="#L1_60" x="350" y="0"/><use xlink:href="#L1_60" x="-350" y="350"/><use xlink:href="#L1_60" x="0" y="350"/><use xlink:href="#L1_60" x="350" y="350"/></pattern><rect x="0" y="0" width="100%" height="100%" fill="url(#pattern_L1_60)"/></g><g fi:class="KUsePattern"><pattern id="pattern_L1_62" width="350" height="350" patternUnits="userSpaceOnUse"><use xlink:href="#L1_62" x="-350" y="-350"/><use xlink:href="#L1_62" x="0" y="-350"/><use xlink:href="#L1_62" x="350" y="-350"/><use xlink:href="#L1_62" x="-350" y="0"/><use xlink:href="#L1_62" x="0" y="0"/><use xlink:href="#L1_62" x="350" y="0"/><use xlink:href="#L1_62" x="-350" y="350"/><use xlink:href="#L1_62" x="0" y="350"/><use xlink:href="#L1_62" x="350" y="350"/></pattern><rect x="0" y="0" width="100%" height="100%" fill="url(#pattern_L1_62)"/></g><g fi:class="KUsePattern"><pattern id="pattern_L1_64" width="350" height="350" patternUnits="userSpaceOnUse"><use xlink:href="#L1_64" x="-350" y="-350"/><use xlink:href="#L1_64" x="0" y="-350"/><use xlink:href="#L1_64" x="350" y="-350"/><use xlink:href="#L1_64" x="-350" y="0"/><use xlink:href="#L1_64" x="0" y="0"/><use xlink:href="#L1_64" x="350" y="0"/><use xlink:href="#L1_64" x="-350" y="350"/><use xlink:href="#L1_64" x="0" y="350"/><use xlink:href="#L1_64" x="350" y="350"/></pattern><rect x="0" y="0" width="100%" height="100%" fill="url(#pattern_L1_64)"/></g><g fi:class="KUsePattern"><pattern id="pattern_L1_66" width="350" height="350" patternUnits="userSpaceOnUse"><use xlink:href="#L1_66" x="-350" y="-350"/><use xlink:href="#L1_66" x="0" y="-350"/><use xlink:href="#L1_66" x="350" y="-350"/><use xlink:href="#L1_66" x="-350" y="0"/><use xlink:href="#L1_66" x="0" y="0"/><use xlink:href="#L1_66" x="350" y="0"/><use xlink:href="#L1_66" x="-350" y="350"/><use xlink:href="#L1_66" x="0" y="350"/><use xlink:href="#L1_66" x="350" y="350"/></pattern><rect x="0" y="0" width="100%" height="100%" fill="url(#pattern_L1_66)"/></g><g fi:class="KUsePattern"><pattern id="pattern_L1_68" width="350" height="350" patternUnits="userSpaceOnUse"><use xlink:href="#L1_68" x="-350" y="-350"/><use xlink:href="#L1_68" x="0" y="-350"/><use xlink:href="#L1_68" x="350" y="-350"/><use xlink:href="#L1_68" x="-350" y="0"/><use xlink:href="#L1_68" x="0" y="0"/><use xlink:href="#L1_68" x="350" y="0"/><use xlink:href="#L1_68" x="-350" y="350"/><use xlink:href="#L1_68" x="0" y="350"/><use xlink:href="#L1_68" x="350" y="350"/></pattern><rect x="0" y="0" width="100%" height="100%" fill="url(#pattern_L1_68)"/></g><g fi:class="KUsePattern"><pattern id="pattern_L1_71" width="350" height="350" patternUnits="userSpaceOnUse"><use xlink:href="#L1_71" x="-350" y="-350"/><use xlink:href="#L1_71" x="0" y="-350"/><use xlink:href="#L1_71" x="350" y="-350"/><use xlink:href="#L1_71" x="-350" y="0"/><use xlink:href="#L1_71" x="0" y="0"/><use xlink:href="#L1_71" x="350" y="0"/><use xlink:href="#L1_71" x="-350" y="350"/><use xlink:href="#L1_71" x="0" y="350"/><use xlink:href="#L1_71" x="350" y="350"/></pattern><rect x="0" y="0" width="100%" height="100%" fill="url(#pattern_L1_71)"/></g><g fi:class="KUsePattern"><pattern id="pattern_L1_70" width="350" height="350" patternUnits="userSpaceOnUse"><use xlink:href="#L1_70" x="-350" y="-350"/><use xlink:href="#L1_70" x="0" y="-350"/><use xlink:href="#L1_70" x="350" y="-350"/><use xlink:href="#L1_70" x="-350" y="0"/><use xlink:href="#L1_70" x="0" y="0"/><use xlink:href="#L1_70" x="350" y="0"/><use xlink:href="#L1_70" x="-350" y="350"/><use xlink:href="#L1_70" x="0" y="350"/><use xlink:href="#L1_70" x="350" y="350"/></pattern><rect x="0" y="0" width="100%" height="100%" fill="url(#pattern_L1_70)"/></g><g fi:class="KUsePattern"><pattern id="pattern_L1_72" width="350" height="350" patternUnits="userSpaceOnUse"><use xlink:href="#L1_72" x="-350" y="-350"/><use xlink:href="#L1_72" x="0" y="-350"/><use xlink:href="#L1_72" x="350" y="-350"/><use xlink:href="#L1_72" x="-350" y="0"/><use xlink:href="#L1_72" x="0" y="0"/><use xlink:href="#L1_72" x="350" y="0"/><use xlink:href="#L1_72" x="-350" y="350"/><use xlink:href="#L1_72" x="0" y="350"/><use xlink:href="#L1_72" x="350" y="350"/></pattern><rect x="0" y="0" width="100%" height="100%" fill="url(#pattern_L1_72)"/></g><g fi:class="KUsePattern"><pattern id="pattern_L1_75" width="350" height="350" patternUnits="userSpaceOnUse"><use xlink:href="#L1_75" x="-350" y="-350"/><use xlink:href="#L1_75" x="0" y="-350"/><use xlink:href="#L1_75" x="350" y="-350"/><use xlink:href="#L1_75" x="-350" y="0"/><use xlink:href="#L1_75" x="0" y="0"/><use xlink:href="#L1_75" x="350" y="0"/><use xlink:href="#L1_75" x="-350" y="350"/><use xlink:href="#L1_75" x="0" y="350"/><use xlink:href="#L1_75" x="350" y="350"/></pattern><rect x="0" y="0" width="100%" height="100%" fill="url(#pattern_L1_75)"/></g><g fi:class="KUsePattern"><pattern id="pattern_L1_76" width="350" height="350" patternUnits="userSpaceOnUse"><use xlink:href="#L1_76" x="-350" y="-350"/><use xlink:href="#L1_76" x="0" y="-350"/><use xlink:href="#L1_76" x="350" y="-350"/><use xlink:href="#L1_76" x="-350" y="0"/><use xlink:href="#L1_76" x="0" y="0"/><use xlink:href="#L1_76" x="350" y="0"/><use xlink:href="#L1_76" x="-350" y="350"/><use xlink:href="#L1_76" x="0" y="350"/><use xlink:href="#L1_76" x="350" y="350"/></pattern><rect x="0" y="0" width="100%" height="100%" fill="url(#pattern_L1_76)"/></g><g fi:class="KUsePattern"><pattern id="pattern_L1_78" width="350" height="350" patternUnits="userSpaceOnUse"><use xlink:href="#L1_78" x="-350" y="-350"/><use xlink:href="#L1_78" x="0" y="-350"/><use xlink:href="#L1_78" x="350" y="-350"/><use xlink:href="#L1_78" x="-350" y="0"/><use xlink:href="#L1_78" x="0" y="0"/><use xlink:href="#L1_78" x="350" y="0"/><use xlink:href="#L1_78" x="-350" y="350"/><use xlink:href="#L1_78" x="0" y="350"/><use xlink:href="#L1_78" x="350" y="350"/></pattern><rect x="0" y="0" width="100%" height="100%" fill="url(#pattern_L1_78)"/></g><g fi:class="KUsePattern"><pattern id="pattern_L1_79" width="350" height="350" patternUnits="userSpaceOnUse"><use xlink:href="#L1_79" x="-350" y="-350"/><use xlink:href="#L1_79" x="0" y="-350"/><use xlink:href="#L1_79" x="350" y="-350"/><use xlink:href="#L1_79" x="-350" y="0"/><use xlink:href="#L1_79" x="0" y="0"/><use xlink:href="#L1_79" x="350" y="0"/><use xlink:href="#L1_79" x="-350" y="350"/><use xlink:href="#L1_79" x="0" y="350"/><use xlink:href="#L1_79" x="350" y="350"/></pattern><rect x="0" y="0" width="100%" height="100%" fill="url(#pattern_L1_79)"/></g><g fi:class="KUsePattern"><pattern id="pattern_L1_82" width="350" height="350" patternUnits="userSpaceOnUse"><use xlink:href="#L1_82" x="-350" y="-350"/><use xlink:href="#L1_82" x="0" y="-350"/><use xlink:href="#L1_82" x="350" y="-350"/><use xlink:href="#L1_82" x="-350" y="0"/><use xlink:href="#L1_82" x="0" y="0"/><use xlink:href="#L1_82" x="350" y="0"/><use xlink:href="#L1_82" x="-350" y="350"/><use xlink:href="#L1_82" x="0" y="350"/><use xlink:href="#L1_82" x="350" y="350"/></pattern><rect x="0" y="0" width="100%" height="100%" fill="url(#pattern_L1_82)"/></g><g fi:class="KUsePattern"><pattern id="pattern_L1_87" width="350" height="350" patternUnits="userSpaceOnUse"><use xlink:href="#L1_87" x="-350" y="-350"/><use xlink:href="#L1_87" x="0" y="-350"/><use xlink:href="#L1_87" x="350" y="-350"/><use xlink:href="#L1_87" x="-350" y="0"/><use xlink:href="#L1_87" x="0" y="0"/><use xlink:href="#L1_87" x="350" y="0"/><use xlink:href="#L1_87" x="-350" y="350"/><use xlink:href="#L1_87" x="0" y="350"/><use xlink:href="#L1_87" x="350" y="350"/></pattern><rect x="0" y="0" width="100%" height="100%" fill="url(#pattern_L1_87)"/></g><g fi:class="KUsePattern"><pattern id="pattern_L1_88" width="350" height="350" patternUnits="userSpaceOnUse"><use xlink:href="#L1_88" x="-350" y="-350"/><use xlink:href="#L1_88" x="0" y="-350"/><use xlink:href="#L1_88" x="350" y="-350"/><use xlink:href="#L1_88" x="-350" y="0"/><use xlink:href="#L1_88" x="0" y="0"/><use xlink:href="#L1_88" x="350" y="0"/><use xlink:href="#L1_88" x="-350" y="350"/><use xlink:href="#L1_88" x="0" y="350"/><use xlink:href="#L1_88" x="350" y="350"/></pattern><rect x="0" y="0" width="100%" height="100%" fill="url(#pattern_L1_88)"/></g><g fi:class="KUsePattern"><pattern id="pattern_L1_94" width="350" height="350" patternUnits="userSpaceOnUse"><use xlink:href="#L1_94" x="-350" y="-350"/><use xlink:href="#L1_94" x="0" y="-350"/><use xlink:href="#L1_94" x="350" y="-350"/><use xlink:href="#L1_94" x="-350" y="0"/><use xlink:href="#L1_94" x="0" y="0"/><use xlink:href="#L1_94" x="350" y="0"/><use xlink:href="#L1_94" x="-350" y="350"/><use xlink:href="#L1_94" x="0" y="350"/><use xlink:href="#L1_94" x="350" y="350"/></pattern><rect x="0" y="0" width="100%" height="100%" fill="url(#pattern_L1_94)"/></g><g fi:class="KUsePattern"><pattern id="pattern_L1_95" width="350" height="350" patternUnits="userSpaceOnUse"><use xlink:href="#L1_95" x="-350" y="-350"/><use xlink:href="#L1_95" x="0" y="-350"/><use xlink:href="#L1_95" x="350" y="-350"/><use xlink:href="#L1_95" x="-350" y="0"/><use xlink:href="#L1_95" x="0" y="0"/><use xlink:href="#L1_95" x="350" y="0"/><use xlink:href="#L1_95" x="-350" y="350"/><use xlink:href="#L1_95" x="0" y="350"/><use xlink:href="#L1_95" x="350" y="350"/></pattern><rect x="0" y="0" width="100%" height="100%" fill="url(#pattern_L1_95)"/></g></svg>