<svg id="visual" viewBox="0 0 960 540" width="960" height="540" xmlns="http://www.w3.org/2000/svg" xmlns:xlink="http://www.w3.org/1999/xlink" version="1.1"><path d="M0 379L26.7 385.8C53.3 392.7 106.7 406.3 160 405.2C213.3 404 266.7 388 320 377.5C373.3 367 426.7 362 480 366.5C533.3 371 586.7 385 640 407.3C693.3 429.7 746.7 460.3 800 455.7C853.3 451 906.7 411 933.3 391L960 371L960 541L933.3 541C906.7 541 853.3 541 800 541C746.7 541 693.3 541 640 541C586.7 541 533.3 541 480 541C426.7 541 373.3 541 320 541C266.7 541 213.3 541 160 541C106.7 541 53.3 541 26.7 541L0 541Z" fill="#800080" stroke-linecap="round" stroke-linejoin="miter"></path></svg>